<svg width="79" height="75" viewBox="0 0 79 75" fill="none" xmlns="http://www.w3.org/2000/svg">
<g opacity="0.3">
<path d="M30.264 0.215466C29.7901 0.316065 29.0642 0.396544 28.6508 0.406604C27.9552 0.406604 27.8342 0.436784 27.2494 0.778819C26.8965 0.990076 26.3924 1.35223 26.1303 1.58361C25.6665 1.99606 25.0213 3.04229 25.0213 3.37426C25.0213 3.4648 24.7692 3.77666 24.4567 4.06839C23.9626 4.51103 23.388 5.33594 23.5694 5.33594C23.7509 5.33594 24.2248 4.88324 24.4466 4.50097C24.8297 3.85714 24.9305 3.79678 25.354 3.97786C25.9085 4.20923 26.9772 4.16899 27.6224 3.89738C28.5903 3.49498 30.4555 2.09666 31.4032 1.07056C31.8872 0.547442 32.2804 0.094748 32.2804 0.0645685C32.2804 -0.05615 31.0907 0.034389 30.264 0.215466Z" fill="white"/>
<path d="M46.6953 0.0645676C46.6953 0.0947471 47.0885 0.537381 47.5624 1.05043C48.5101 2.0866 50.5568 3.60564 51.4339 3.93762C52.0489 4.16899 53.1075 4.18911 53.6217 3.97786C54.0452 3.79678 54.146 3.85714 54.509 4.48085C54.7207 4.83294 55.2449 5.33594 55.4163 5.33594C55.5777 5.33594 55.003 4.49091 54.5795 4.11869C54.2468 3.82696 54.0351 3.53522 53.9544 3.27366C53.6621 2.31798 52.916 1.48301 51.7263 0.778818C51.1516 0.446843 51.0205 0.406603 50.3652 0.406603C49.9619 0.406603 49.1957 0.316064 48.6613 0.205406C47.7237 0.0142684 46.6953 -0.0662107 46.6953 0.0645676Z" fill="white"/>
<path d="M21.087 1.54342C20.3006 1.88545 19.5445 2.35827 19.2521 2.68018C19.1614 2.79084 18.9194 3.18318 18.7077 3.57551C18.506 3.95779 18.2741 4.35012 18.2036 4.4306C18.133 4.51108 18.0322 4.78269 17.9616 5.02413C17.9011 5.27563 17.7297 5.69814 17.5885 5.96976C17.1651 6.77455 17.1651 7.26748 17.6087 8.10245C17.9414 8.7161 17.9818 8.85694 17.9313 9.28951C17.8608 9.85287 18.0221 9.84281 18.1229 9.27945C18.1834 8.99778 18.3951 8.69598 19.0706 8.00185C20.099 6.9355 20.8047 5.9597 21.0165 5.33599C21.0971 5.08449 21.1979 4.37024 21.2282 3.74653C21.2988 2.5997 21.4097 2.14701 21.7928 1.61384C22.1557 1.11084 22.0953 1.10078 21.087 1.54342Z" fill="white"/>
<path d="M57.346 1.8823C57.6586 2.48589 57.6989 2.67703 57.7493 3.52206C57.8199 4.88014 57.8703 5.192 58.1123 5.66481C58.4147 6.27846 59.1306 7.18385 60.0077 8.0993C60.5925 8.70289 60.8042 8.99462 60.8546 9.2763C60.9655 9.85977 61.0764 9.79941 61.0663 9.16564C61.0663 8.69283 61.1167 8.51175 61.3688 8.13954C61.8023 7.4957 61.7922 6.73115 61.3486 5.82577C61.1671 5.46361 61.0159 5.10146 61.0159 5.02098C61.0159 4.9405 60.9554 4.76948 60.8748 4.62864C59.7657 2.57643 59.4935 2.28469 58.2433 1.70122C56.9125 1.08757 56.9427 1.08757 57.346 1.8823Z" fill="white"/>
<path d="M14.3515 6.64136C13.0408 7.45621 12.6275 7.91896 12.1738 9.10603C11.9621 9.65932 11.7503 10.273 11.71 10.4641C11.6596 10.6552 11.5487 11.1281 11.4479 11.5204C11.095 12.969 11.1555 13.4619 11.8108 14.2567C12.2645 14.7898 12.4359 15.2627 12.3553 15.7355C12.3048 16.0272 12.3048 16.0373 12.4561 15.8562C12.5468 15.7455 12.6174 15.484 12.6174 15.2727C12.6174 14.8703 12.9299 14.2667 13.3836 13.7839C13.6558 13.4921 14.4624 12.0536 14.7447 11.3393C14.9766 10.7458 15.0371 10.1221 14.9262 9.25692C14.7447 7.83848 14.785 7.50651 15.2892 6.30938C15.4001 6.03777 15.2488 6.09813 14.3515 6.64136Z" fill="white"/>
<path d="M63.6328 6.1785C63.6328 6.19862 63.7538 6.47024 63.8949 6.78209C64.1873 7.41586 64.2075 7.8585 64.0462 9.32724C63.9756 10.0214 63.9857 10.3735 64.0764 10.7859C64.2478 11.5102 65.0544 13.0594 65.6593 13.8542C66.2945 14.6891 66.3449 14.7897 66.4054 15.3531C66.4356 15.6147 66.5062 15.8863 66.5667 15.9366C66.6474 16.0171 66.6675 15.9869 66.6574 15.846C66.5869 15.2022 66.6675 14.8903 67.0103 14.4678C67.7866 13.5121 67.9379 12.7979 67.5648 11.7416C67.4539 11.4298 67.3632 11.0072 67.3632 10.8161C67.3632 10.6149 67.2926 10.3232 67.212 10.1723C67.1313 10.0113 66.9297 9.50832 66.7684 9.05562C66.597 8.60293 66.3449 8.07982 66.2138 7.89874C65.7702 7.32533 63.6328 5.89682 63.6328 6.1785Z" fill="white"/>
<path d="M24.2122 6.8057C22.8209 7.09743 21.8328 7.57025 21.2884 8.21408C21.1069 8.42533 20.875 8.54605 20.4818 8.63659C19.9878 8.74725 19.0703 9.18988 19.0703 9.32066C19.0703 9.44138 19.8567 9.21 20.3608 8.93839L20.9153 8.64665L21.2783 8.99875C22.226 9.92425 23.3754 9.93431 26.0068 9.04905C26.7932 8.78749 28.981 7.65072 29.1121 7.43947C29.2129 7.27851 28.7189 7.17791 27.4586 7.10749C26.7831 7.06725 26.0572 6.97671 25.8455 6.90629C25.2002 6.68498 24.8877 6.66486 24.2122 6.8057Z" fill="white"/>
<path d="M53.3713 6.84362C53.0184 6.96434 52.4034 7.05488 51.5565 7.10518C50.8507 7.14542 50.1651 7.21584 50.024 7.26614C49.7719 7.35668 49.7719 7.36674 49.9736 7.50758C50.639 8.01057 52.2925 8.82542 53.2099 9.11715C55.7809 9.932 56.7588 9.90182 57.6965 8.99644L58.0594 8.64434L58.6341 8.94614C58.9467 9.11715 59.3701 9.27811 59.5818 9.30829C59.9448 9.36865 59.9448 9.36865 59.7532 9.19763C59.4709 8.96626 58.8156 8.68458 58.4123 8.62422C58.2107 8.59404 57.888 8.38278 57.5352 8.07093C56.8899 7.4774 56.2043 7.13536 55.2163 6.90398C54.0972 6.65249 53.9359 6.64243 53.3713 6.84362Z" fill="white"/>
<path d="M18.2638 11.9025C17.79 12.0836 17.2959 12.2949 17.1548 12.3753C16.7918 12.5765 15.7433 13.5825 15.582 13.9044C15.5013 14.0654 15.3501 14.1861 15.2493 14.1861C14.8863 14.1861 13.4143 15.1217 13.5655 15.2625C13.6462 15.343 14.4931 14.9607 14.7855 14.6992C15.2896 14.2666 15.4912 14.2264 15.8441 14.5181C16.2776 14.8903 16.812 15.0412 17.6085 15.0211C18.1932 15.0211 18.4957 14.9406 19.4233 14.5684C20.0383 14.3169 20.8146 13.9749 21.1574 13.8038C21.9438 13.4014 23.93 11.8925 23.8493 11.7516C23.809 11.6913 23.1536 11.6611 22.0547 11.6812C21.107 11.7013 20.0584 11.6812 19.7257 11.641C19.1813 11.5706 19.0301 11.6007 18.2638 11.9025Z" fill="white"/>
<path d="M58.746 11.6858C58.5746 11.7361 57.7378 11.7461 56.8203 11.716C55.7113 11.6657 55.1769 11.6858 55.1265 11.7562C55.0962 11.8166 55.5298 12.219 56.1448 12.6918C57.3244 13.5871 58.6552 14.2812 60.228 14.8043C61.0044 15.0659 61.2363 15.1061 61.7101 15.0458C62.2545 14.9854 62.7889 14.7742 63.3434 14.4221C63.6156 14.251 63.6257 14.2611 64.15 14.6635C64.6843 15.0558 65.3498 15.3677 65.3498 15.2067C65.3498 14.9754 64.0794 14.1907 63.6963 14.1907C63.6156 14.1907 63.4745 14.0599 63.3938 13.8989C63.1821 13.4966 62.3957 12.732 61.8714 12.4302C61.2262 12.0479 59.8449 11.5751 59.4215 11.5852C59.2198 11.5852 58.9174 11.6355 58.746 11.6858Z" fill="white"/>
<path d="M8.63685 12.5588C7.88069 13.1926 7.20519 13.9471 6.94306 14.4501C6.64059 15.0436 6.34821 17.0455 6.33813 18.6148C6.31796 20.3854 6.41879 20.6369 7.41692 21.4115C8.01176 21.8843 8.07225 21.9648 8.19324 22.4879C8.35455 23.2021 8.47554 23.0211 8.41504 22.1559C8.37472 21.5322 8.39488 21.4215 8.76792 20.6671C9.30227 19.5705 9.80638 17.7899 9.80638 16.9751C9.80638 16.5928 9.70556 16.0194 9.54424 15.4963C9.07038 13.9169 9.04014 13.6352 9.26194 12.7499C9.37285 12.3274 9.43334 11.9753 9.40309 11.9753C9.37285 11.9753 9.01997 12.2369 8.63685 12.5588Z" fill="white"/>
<path d="M69.6132 12.1873C69.6535 12.318 69.7342 12.7506 69.8048 13.1329C69.9056 13.817 69.8955 13.8874 69.5426 15.0845C69.3007 15.9396 69.1797 16.5432 69.1797 16.9657C69.1797 17.7101 69.7241 19.7221 70.1778 20.5973C70.5811 21.4122 70.6819 21.8347 70.5912 22.3477C70.5408 22.5892 70.5408 22.8507 70.5912 22.9312C70.6416 23.0217 70.692 22.9513 70.7323 22.6898C70.8533 22.0761 70.9844 21.8749 71.6498 21.3518C72.5774 20.6074 72.658 20.376 72.6379 18.6155C72.6278 16.9556 72.3354 15.0342 71.9825 14.3501C71.7708 13.9276 70.5105 12.6098 69.8955 12.1772L69.5527 11.9358L69.6132 12.1873Z" fill="white"/>
<path d="M17.5106 16.8515C16.825 17.0024 16.0587 17.093 15.5042 17.103C14.6473 17.103 14.5767 17.1231 13.8004 17.5255C12.4796 18.2197 11.4815 19.2961 11.1689 20.3524C11.1387 20.4429 10.9874 20.5737 10.8362 20.634C10.443 20.7749 9.77759 21.3483 9.56587 21.7205C9.22307 22.314 9.76751 22.0122 10.5136 21.1974L11.0782 20.5837L11.6226 20.8252C12.0561 21.0264 12.3384 21.0767 12.9837 21.0767C13.7499 21.0767 13.8709 21.0465 14.5464 20.6843C16.0587 19.8997 17.4702 18.8736 18.4986 17.8273C19.033 17.264 19.4766 16.761 19.4766 16.7107C19.4766 16.5397 18.7103 16.6 17.5106 16.8515Z" fill="white"/>
<path d="M59.5 16.7027C59.5 16.8738 61.3551 18.7348 61.9701 19.1674C63.0993 19.9722 64.5915 20.8072 65.1863 20.9782C65.9324 21.1894 66.749 21.1291 67.4145 20.8072L67.8883 20.5758L68.4126 21.1492C68.9268 21.7125 69.441 22.1049 69.5418 22.0143C69.6527 21.8936 68.8865 21.0587 68.4025 20.777C67.969 20.5255 67.848 20.3846 67.6564 19.9219C67.3338 19.1372 66.2449 18.091 65.1863 17.5276C64.41 17.1252 64.3193 17.1051 63.4925 17.1051C62.938 17.1051 62.1919 17.0146 61.4559 16.8536C60.2461 16.5921 59.5 16.5317 59.5 16.7027Z" fill="white"/>
<path d="M3.79505 19.7892C3.43209 20.2822 2.98848 20.9662 2.807 21.3284L2.48438 21.9823L2.50454 23.6422C2.5247 24.8292 2.57511 25.4127 2.68602 25.7044C2.76667 25.9257 2.89774 26.479 2.9784 26.9418C3.20021 28.2093 3.75472 28.9839 4.66211 29.2958C5.30737 29.5171 5.75098 29.8692 6.00303 30.3621C6.18451 30.7142 6.26517 30.7947 6.31558 30.674C6.34583 30.5835 6.28533 30.3621 6.17443 30.171C5.94254 29.7887 5.89213 28.833 6.06353 28.1188C6.12402 27.8975 6.19459 27.0525 6.22484 26.2477C6.29541 24.4067 6.18451 23.9037 5.35778 22.4149C4.6117 21.0668 4.53104 20.7751 4.57137 19.7389C4.58146 19.2862 4.57137 18.914 4.53104 18.914C4.49072 18.914 4.16809 19.3064 3.79505 19.7892Z" fill="white"/>
<path d="M74.4319 19.7501C74.4319 20.8567 74.3916 20.9975 73.706 22.2349C72.7683 23.935 72.7683 23.9451 72.7784 25.9067C72.7784 26.8825 72.8288 27.798 72.8994 28.0495C73.1011 28.7637 73.0708 29.6691 72.8389 30.1319C72.5365 30.7254 72.6776 30.9065 73.0002 30.323C73.2321 29.8904 73.3531 29.7798 74.0891 29.4277C74.5428 29.2064 75.057 28.8945 75.2183 28.7336C75.6115 28.3613 75.8837 27.6873 76.0249 26.8021C76.0854 26.4097 76.2063 25.9269 76.287 25.7257C76.3979 25.454 76.4483 24.9108 76.4685 23.6734L76.4886 21.9834L76.166 21.3194C75.8837 20.746 74.5932 18.9151 74.4722 18.9151C74.4521 18.9151 74.4319 19.2873 74.4319 19.7501Z" fill="white"/>
<path d="M14.7389 22.2736C14.2146 22.4647 13.529 22.7062 13.2265 22.8168C12.9241 22.9275 12.3998 23.0583 12.0671 23.0884C11.2504 23.189 10.8875 23.3902 9.98009 24.2654C9.10295 25.1105 8.54843 26.0963 8.42745 27.0319C8.37704 27.4544 8.30646 27.6154 8.1149 27.7361C7.79228 27.9474 7.3285 28.6415 7.19743 29.1042C7.09661 29.4463 7.10669 29.4664 7.27809 29.3759C7.50998 29.2551 7.88301 28.7924 7.88301 28.6314C7.88301 28.561 8.01408 28.2995 8.18548 28.0379C8.46778 27.5852 8.48794 27.5751 8.79041 27.6858C9.31468 27.8669 10.5749 27.7361 11.2303 27.4343C12.1477 27.0219 14.3557 24.8087 15.3035 23.3601C15.7168 22.7363 16.0495 22.1529 16.0495 22.0724C16.0495 21.8611 15.7975 21.9014 14.7389 22.2736Z" fill="white"/>
<path d="M62.9297 22.0926C62.9297 22.1832 63.1212 22.5353 63.3632 22.8773C63.6052 23.2093 63.9177 23.6921 64.0589 23.9436C64.4723 24.6579 67.023 27.0823 67.7086 27.4143C68.3639 27.7362 69.4831 27.8569 70.1082 27.6859C70.5518 27.5652 70.6425 27.6457 71.0458 28.5008C71.197 28.8126 71.4491 29.1647 71.6104 29.2754L71.8826 29.4766L71.7818 29.1043C71.6507 28.6315 71.1869 27.9475 70.8542 27.7261C70.6728 27.6155 70.5921 27.4746 70.5921 27.2735C70.5921 26.7906 70.209 25.7343 69.846 25.1911C69.4528 24.6176 68.3539 23.5815 67.8397 23.3199C67.6582 23.2294 67.2448 23.1288 66.9121 23.0885C66.5794 23.0483 66.0854 22.9377 65.8031 22.8371C63.0507 21.8311 62.9297 21.7908 62.9297 22.0926Z" fill="white"/>
<path d="M77.6187 27.0135C77.5885 27.1241 77.528 27.4158 77.4977 27.6673C77.3364 28.6633 77.0844 29.1059 75.9249 30.3433C75.2091 31.1179 74.7151 31.7517 74.5235 32.144C74.1505 32.8985 73.5556 35.0915 73.4245 36.1981C73.2733 37.4154 73.1624 37.7473 72.7591 38.1296C72.5676 38.3207 72.4062 38.5521 72.4062 38.6527C72.4062 38.7835 72.5172 38.7131 72.8398 38.3912C73.2531 37.9787 73.848 37.7272 74.4025 37.7272C74.5033 37.7272 74.8159 37.6568 75.0982 37.5763C75.8543 37.355 76.4593 36.7615 76.9029 35.836C77.1045 35.4134 77.407 34.8803 77.5683 34.659C77.8405 34.2767 78.6572 32.1138 78.8487 31.2587C79.0302 30.4942 78.6975 29.0858 77.9615 27.436C77.7397 26.9531 77.6691 26.8525 77.6187 27.0135Z" fill="white"/>
<path d="M0.894717 27.759C0.420857 28.7851 0.108312 29.9319 0.0982296 30.6663C0.0881475 31.119 0.209133 31.5817 0.612418 32.7487C0.894717 33.5837 1.22743 34.3885 1.35849 34.5595C1.47948 34.7204 1.78194 35.2637 2.034 35.7667C2.61876 36.9034 3.22369 37.4467 4.12099 37.6277C5.60307 37.9094 5.70389 37.9496 6.1475 38.3822C6.66169 38.8953 6.74235 38.674 6.22816 38.1307C5.81479 37.6981 5.69381 37.3561 5.55266 36.1892C5.41151 35.0323 4.84691 32.9298 4.4537 32.1451C4.27223 31.7528 3.80845 31.1592 3.15311 30.4651C2.59859 29.8716 2.04408 29.1976 1.92309 28.9561C1.66096 28.4531 1.42907 27.6383 1.42907 27.2359C1.42907 26.7731 1.26776 26.924 0.894717 27.759Z" fill="white"/>
<path d="M64.9453 27.6601C64.9453 27.7607 65.1671 28.4448 65.4293 29.1892C65.8124 30.2556 66.0947 30.839 66.8105 31.9859C67.8288 33.6055 68.3329 34.1789 69.0387 34.5411C69.6234 34.8328 70.5106 35.034 70.8433 34.9535C71.1458 34.8831 71.2668 35.0944 71.3878 35.9595C71.4483 36.372 71.5693 36.7442 71.7205 36.9454L71.9524 37.2773L71.9826 36.9454C72.023 36.5027 71.7608 35.6376 71.4584 35.2352C71.2466 34.9435 71.2265 34.8529 71.3172 34.531C71.4584 34.028 71.3575 32.7504 71.1357 32.1971C70.9139 31.6338 70.0771 30.3059 69.7444 29.994C69.6133 29.8733 69.2 29.652 68.8269 29.5212C68.464 29.3904 67.6776 28.9679 67.0827 28.5856C65.8325 27.7909 65.6309 27.6802 65.2377 27.5696C64.9957 27.4992 64.9453 27.5092 64.9453 27.6601Z" fill="white"/>
<path d="M12.7316 28.0721C12.2678 28.3538 11.6931 28.7159 11.431 28.897C11.179 29.068 10.6345 29.3396 10.2212 29.4905C9.80779 29.6414 9.38434 29.8527 9.27344 29.9533C8.92056 30.2651 8.11399 31.5629 7.8821 32.1665C7.61997 32.8807 7.51915 33.9169 7.67038 34.4601C7.7712 34.8223 7.75104 34.8927 7.51915 35.2246C7.378 35.4258 7.19652 35.8182 7.11586 36.0797C6.97471 36.5526 6.95455 37.2266 7.07554 37.2266C7.19652 37.2266 7.57964 36.3514 7.58972 36.0596C7.58972 35.8987 7.65022 35.5868 7.71071 35.3655L7.83169 34.9732L8.46687 34.953C9.15245 34.9229 9.92877 34.6211 10.574 34.1382C10.9168 33.8766 12.1569 32.086 12.8929 30.7882C13.1853 30.2752 14.0322 27.9715 14.0322 27.6999C14.0322 27.4383 13.5382 27.5792 12.7316 28.0721Z" fill="white"/>
<path d="M13.0742 33.2825C12.9129 33.3932 12.2979 33.9767 11.7232 34.6004C11.1485 35.2241 10.473 35.8378 10.2411 35.9786C9.55556 36.381 9.24302 36.8136 8.90023 37.8497C8.37596 39.4392 8.38604 40.4049 8.94056 41.6423C9.19261 42.1855 9.19261 42.2258 9.04138 42.6483C8.8599 43.1613 8.8599 43.9762 9.03129 44.4591C9.23294 45.0325 9.34384 44.6502 9.34384 43.3726V42.2258L9.80762 42.1151C10.8662 41.8435 11.9349 40.8878 12.3181 39.8617C12.439 39.5498 12.7415 38.5942 12.9835 37.7391C13.3364 36.5118 13.4473 35.9685 13.4977 35.0732C13.6187 32.9606 13.6187 32.9506 13.0742 33.2825Z" fill="white"/>
<path d="M65.4191 33.1718C65.399 33.2221 65.3788 33.383 65.399 33.5541C65.5905 36.5117 65.53 36.1897 66.2257 38.4834C66.7298 40.1936 66.9617 40.6362 67.5969 41.2197C68.1211 41.7025 68.5446 41.944 69.1798 42.1049L69.6335 42.2156V43.3222C69.6335 43.9358 69.6839 44.4992 69.7444 44.5998C69.8351 44.7708 69.8754 44.7306 69.9863 44.3282C70.1275 43.8252 70.067 42.7991 69.8754 42.447C69.7948 42.286 69.825 42.1452 69.9964 41.783C70.561 40.6161 70.6013 39.3284 70.0972 37.8798C69.7444 36.8336 69.573 36.5821 68.9781 36.1696C68.7362 35.9986 67.9699 35.2944 67.2743 34.5902C65.9434 33.2523 65.5502 32.9505 65.4191 33.1718Z" fill="white"/>
<path d="M0.127561 36.372C-0.0337529 37.3479 -0.043835 38.9373 0.107397 39.6415C0.177972 40.0037 0.389696 40.4563 0.702242 40.9191C2.06333 42.9613 2.33554 43.3335 2.62793 43.5145C2.79932 43.6252 3.24294 44.0678 3.59581 44.4904C4.11 45.104 4.38221 45.3253 4.91657 45.5869C5.58199 45.9189 5.60215 45.9189 6.86242 45.8987L8.13276 45.8686L8.66712 46.2207C8.94941 46.4118 9.19139 46.5325 9.19139 46.4923C9.19139 46.3514 8.93933 46.11 8.46547 45.7881C7.99161 45.4762 7.7194 45.0336 7.11447 43.5648C6.83217 42.8908 5.40051 40.5469 5.02747 40.1546C4.6141 39.732 3.94868 39.229 2.75899 38.4846C1.66004 37.8005 1.14585 37.2573 0.69216 36.3117C0.520764 35.9395 0.339285 35.6276 0.309039 35.6276C0.278793 35.6176 0.188054 35.9596 0.127561 36.372Z" fill="white"/>
<path d="M78.2654 36.3405C77.7916 37.3464 77.3983 37.7287 75.7852 38.785C74.9383 39.3282 74.1922 39.9016 73.9301 40.2034C73.3756 40.8372 72.1758 42.8592 71.6919 43.996C71.1676 45.2133 70.966 45.515 70.4014 45.8671C70.1291 46.0482 69.8872 46.2695 69.8569 46.3701C69.8166 46.5311 69.8973 46.511 70.3106 46.2494C70.8752 45.8973 71.4801 45.7867 72.3069 45.8973C73.4764 46.0482 74.4947 45.5754 75.4323 44.4386C75.755 44.0463 76.1683 43.6238 76.3397 43.5131C76.5212 43.4025 76.8741 42.99 77.1362 42.6077C77.3983 42.2154 77.852 41.5615 78.1444 41.1491C78.8098 40.1934 79.0014 39.5697 79.0014 38.282C79.0014 37.2861 78.7897 35.6061 78.6687 35.6262C78.6384 35.6262 78.457 35.9481 78.2654 36.3405Z" fill="white"/>
<path d="M14.0003 39.0354C13.8087 39.2568 13.3853 39.9408 13.0627 40.5545C12.74 41.1681 12.2258 41.9427 11.9234 42.2848C11.1471 43.17 11.0765 43.3712 11.0664 44.9708C11.0664 46.2182 11.0866 46.3892 11.3386 47.0129C11.6108 47.7171 11.873 48.1497 12.2863 48.6024C12.4779 48.8136 12.5283 48.9846 12.5485 49.6084C12.5888 50.3729 12.8913 51.2682 13.2038 51.5298C13.3349 51.6505 13.355 51.5901 13.3046 51.0469C13.2744 50.7149 13.1534 50.2622 13.0425 50.0409C12.9316 49.8196 12.8106 49.4776 12.7703 49.2764C12.6997 48.9243 12.7098 48.9142 13.1837 48.6828C14.2927 48.1497 15.0186 47.0028 15.1396 45.5743C15.2807 43.9245 15.2606 41.7818 15.0993 41.1178C15.0085 40.7758 14.8774 40.1118 14.7867 39.6591C14.5649 38.452 14.5347 38.4218 14.0003 39.0354Z" fill="white"/>
<path d="M64.3991 38.7131C64.3588 38.7735 64.0765 40.1416 63.8345 41.4494C63.7236 42.0329 63.7236 43.904 63.8244 45.2923C63.895 46.1574 63.9656 46.4894 64.2075 47.0024C64.5604 47.7469 65.2258 48.441 65.8408 48.7126C66.2441 48.9038 66.2744 48.9339 66.2139 49.2257C66.1735 49.3967 66.0324 49.8293 65.8912 50.1814C65.7299 50.5938 65.6493 50.966 65.6694 51.2376L65.6997 51.6602L65.9316 51.3081C66.2441 50.8151 66.4558 50.0606 66.4558 49.4168C66.4558 48.944 66.4962 48.8233 66.8087 48.4611C67.6556 47.4853 68.0186 46.2278 67.9379 44.6484C67.8673 43.3608 67.7363 43.0187 67.0406 42.2542C66.728 41.9222 66.2542 41.208 65.9013 40.5339C65.1653 39.1457 64.5806 38.4314 64.3991 38.7131Z" fill="white"/>
<path d="M16.6197 43.947C16.3979 44.1885 16.287 44.5104 15.8737 46.0797C15.6619 46.9147 15.3695 47.7296 15.1276 48.1822C14.8049 48.7959 14.7344 49.0273 14.7344 49.49C14.7445 50.3149 15.0872 51.7736 15.4603 52.5181C15.8132 53.2021 16.8012 54.3489 17.2549 54.5803C17.4767 54.691 17.5473 54.8318 17.638 55.2745C17.7792 55.9887 18.1522 56.703 18.6059 57.1355C18.8076 57.3267 18.9689 57.4675 18.9689 57.4373C18.9588 57.1255 18.616 56.2603 18.3841 55.9686C18.2228 55.7573 18.001 55.4052 17.8901 55.194L17.6884 54.7916L18.2228 54.2986C18.8479 53.7353 19.231 53.021 19.3822 52.1358C19.4831 51.6026 19.4629 51.3612 19.2713 50.4357C18.7471 47.8704 18.4143 46.7839 17.6683 45.2448C17.2751 44.4299 16.9121 43.766 16.8617 43.766C16.8214 43.766 16.7105 43.8464 16.6197 43.947Z" fill="white"/>
<path d="M61.3074 45.2434C60.5613 46.7926 60.2589 47.7784 59.7548 50.2532C59.543 51.2994 59.5229 51.5509 59.6136 52.1042C59.7648 53.0398 60.1278 53.7339 60.763 54.3073L61.3175 54.7902L61.1058 55.1926C60.9848 55.4038 60.763 55.7459 60.6117 55.937C60.3194 56.3092 60.1076 56.8424 60.1076 57.1744C60.1076 57.3655 60.1379 57.3554 60.4202 57.0838C60.7932 56.7317 61.1663 56.0376 61.3276 55.3736C61.4284 54.9612 61.5695 54.7701 62.2148 54.1665C62.6383 53.7641 63.1323 53.1907 63.3238 52.8687C63.7674 52.1344 64.1304 50.8769 64.2111 49.8307C64.2716 49.0058 64.2716 48.9957 63.8582 48.211C63.6061 47.7181 63.3339 46.9636 63.1424 46.2192C62.6887 44.4185 62.4164 43.7646 62.114 43.7646C62.0636 43.7646 61.7107 44.4285 61.3074 45.2434Z" fill="white"/>
<path d="M1.67995 45.0738C1.76061 46.0697 2.11348 47.5183 2.45627 48.293C2.59742 48.5947 2.8898 49.0273 3.10153 49.2486C3.99884 50.1641 5.62206 51.492 6.31772 51.8743C6.73109 52.1056 7.24528 52.4276 7.457 52.6086C8.07201 53.0915 8.92899 53.4436 9.63474 53.4939C10.1187 53.5341 10.4312 53.4939 11.0866 53.2826C12.0645 52.9808 12.4779 52.9607 13.1937 53.2122C13.6777 53.3732 13.7079 53.3732 13.6273 53.2223C13.5768 53.1217 13.3147 52.9909 13.0526 52.9104C12.488 52.7595 11.7923 52.1559 11.1571 51.2606C10.9152 50.9286 10.0683 50.0232 9.27178 49.2386C7.64856 47.6391 7.46709 47.5284 5.15828 46.7437C3.42416 46.1401 3.03095 45.8886 1.9925 44.6714L1.60938 44.2187L1.67995 45.0738Z" fill="white"/>
<path d="M76.8408 44.8312C76.1048 45.7567 75.4495 46.1792 73.8565 46.7225C71.5578 47.5172 71.336 47.648 69.8035 49.1368C69.0574 49.8612 68.2005 50.7867 67.898 51.1891C67.1116 52.2453 66.6075 52.698 65.9723 52.8892C65.6799 52.9898 65.3876 53.1407 65.3371 53.2312C65.2565 53.3922 65.2968 53.3922 65.8009 53.2111C66.5268 52.9596 66.8898 52.9696 67.8879 53.2815C69.2893 53.7241 70.2774 53.5129 71.6889 52.4767C72.0418 52.2252 72.5156 51.9234 72.7576 51.8228C73.3323 51.5713 75.8629 49.3783 76.246 48.8049C76.7602 48.0202 77.4054 45.5354 77.3248 44.6099L77.2945 44.2578L76.8408 44.8312Z" fill="white"/>
<path d="M20.3133 48.411C20.1015 48.6927 20.0511 49.0146 19.9806 50.8555C19.9201 52.274 19.8596 52.8876 19.7285 53.2196C19.3857 54.1351 19.547 54.9197 20.4645 56.6903C20.9787 57.6661 22.0272 58.6922 23.0354 59.1952C23.6807 59.5171 23.8218 59.6177 23.9126 59.9195C24.1243 60.5533 25.3644 61.8711 25.7475 61.8711C25.9492 61.8711 25.3039 60.8752 24.8805 60.5231C24.6284 60.3219 24.2957 59.9899 24.1545 59.7988L23.8823 59.4467L24.1445 59.175C24.8704 58.4105 25.2031 56.8311 24.8805 55.6843C24.6082 54.7386 22.7935 51.1171 22.3095 50.5638C22.0776 50.3022 21.6239 49.7389 21.3013 49.3164C20.5754 48.3607 20.4443 48.24 20.3133 48.411Z" fill="white"/>
<path d="M58.2702 48.5652C58.1391 48.7262 57.7963 49.1386 57.5342 49.5008C57.2619 49.8629 56.8687 50.3559 56.6469 50.6074C56.284 51.0299 54.7414 53.9975 54.2676 55.2047C53.7332 56.5628 53.955 58.1221 54.8221 59.1482C55.0741 59.45 55.0741 59.4802 54.9229 59.7015C54.8422 59.8323 54.5095 60.1642 54.197 60.4359C53.7332 60.8282 53.1484 61.6632 53.1484 61.9247C53.1484 61.9549 53.3501 61.8442 53.5921 61.6833C54.197 61.2608 54.8221 60.5365 55.0237 60.0033C55.1749 59.6009 55.2556 59.5305 55.9613 59.1985C57.4535 58.4742 58.623 56.9652 59.3187 54.8728L59.5304 54.2088L59.3086 53.4443C59.0868 52.6898 59.0465 52.2974 58.9557 50.0541C58.9154 49.0179 58.7743 48.2936 58.6029 48.2936C58.5625 48.2936 58.4113 48.4143 58.2702 48.5652Z" fill="white"/>
<path d="M5.15625 52.5142C5.15625 52.6752 5.81159 54.325 6.09389 54.8884C6.86013 56.3772 7.58604 57.0915 9.08828 57.846C9.45123 58.0271 10.0461 58.349 10.4191 58.5703C10.7922 58.7916 11.3769 59.033 11.7197 59.1135C12.0726 59.194 12.6977 59.4153 13.1211 59.6065C14.5729 60.2603 15.7122 60.3207 16.6902 59.7976C18.0714 59.0532 18.1622 59.023 18.7469 59.0431C19.0595 59.0431 19.4628 59.0833 19.6241 59.1135L19.9266 59.1739L19.6947 59.0029C19.5737 58.9123 19.2006 58.8017 18.878 58.7514C18.1924 58.6608 17.4968 58.2584 16.5995 57.4436C16.0147 56.9104 14.1293 55.6529 13.0707 55.0695C12.1532 54.5765 11.6794 54.4558 9.60246 54.1842C7.44489 53.9025 7.15251 53.8019 5.95274 52.9669C5.51921 52.6551 5.15625 52.4539 5.15625 52.5142Z" fill="white"/>
<path d="M73.1623 52.8876C72.0432 53.7326 71.5492 53.9036 69.4017 54.1753C67.3248 54.4469 66.8308 54.5676 65.9032 55.0706C64.8446 55.644 62.9592 56.9115 62.3846 57.4346C61.4469 58.2897 60.8117 58.6519 60.1262 58.7525C59.7834 58.8028 59.4002 58.9134 59.2793 59.004C59.0474 59.175 59.0474 59.175 59.3902 59.1046C60.3278 58.9134 61.1142 59.0744 62.0317 59.6679C63.0601 60.3218 64.2598 60.2916 65.9536 59.5774C66.4779 59.3561 67.0929 59.1348 67.3147 59.0945C67.7583 59.014 70.8132 57.4045 71.408 56.9317C71.8315 56.5997 72.5171 55.6138 72.9909 54.6782C73.3337 53.9942 73.8378 52.626 73.7975 52.5053C73.7773 52.4651 73.495 52.6361 73.1623 52.8876Z" fill="white"/>
<path d="M10.6136 59.9295C11.0169 60.6135 11.9243 61.8408 12.4486 62.4344C13.3156 63.4001 13.971 63.8126 15.3119 64.2351C15.9672 64.4363 16.8948 64.7381 17.3888 64.899C17.9736 65.0902 18.4777 65.1908 18.8809 65.1908C19.2237 65.1908 19.9093 65.2914 20.4134 65.402C21.5527 65.6736 22.7121 65.6334 23.4381 65.3115C23.7103 65.1908 24.2144 64.8286 24.5773 64.4966C25.3839 63.7623 25.7368 63.5913 26.5938 63.5108C27.5415 63.4202 27.1584 63.2492 26.0695 63.2693C25.152 63.2895 24.6076 63.1184 23.428 62.4243C22.7928 62.0622 19.7682 60.865 18.7801 60.6035C18.1147 60.4224 16.4915 60.4023 14.8179 60.5632C13.2652 60.7141 12.5897 60.5834 11.1681 59.8993C10.7951 59.7081 10.4624 59.5572 10.4321 59.5572C10.4019 59.5572 10.4825 59.7283 10.6136 59.9295Z" fill="white"/>
<path d="M67.7277 59.9322C67.3345 60.1233 66.6792 60.3748 66.2658 60.4754C65.5702 60.6565 65.3786 60.6666 64.1889 60.566C62.4346 60.4151 60.9727 60.4151 60.3678 60.5559C59.6217 60.737 56.7181 61.8436 55.9216 62.256C53.9455 63.2821 53.6632 63.3727 52.7155 63.2821C52.3727 63.2519 52.05 63.2721 51.9291 63.3425C51.7476 63.433 51.8182 63.4632 52.3727 63.5135C53.27 63.594 53.6128 63.7549 54.379 64.4793C54.742 64.8213 55.2662 65.1935 55.5284 65.3142C56.2039 65.616 57.5045 65.6764 58.3816 65.445C58.7345 65.3545 59.4907 65.2438 60.0552 65.1935C60.6198 65.1533 61.1744 65.0728 61.2752 65.0124C61.3861 64.9521 62.1019 64.7207 62.8782 64.4893C63.6546 64.2579 64.5216 63.9561 64.7938 63.8254C65.4391 63.5236 66.2053 62.8596 66.9413 61.9442C67.758 60.9382 68.6855 59.5399 68.5041 59.5801C68.4637 59.5801 68.1109 59.7511 67.7277 59.9322Z" fill="white"/>
<path d="M38.9318 63.9945C38.3974 64.2862 38.347 64.2963 37.5707 64.2259C37.1271 64.1756 36.4214 64.1454 36.008 64.1353C34.9594 64.1353 34.3243 64.4472 33.2455 65.4834C32.8019 65.9159 32.2474 66.3888 32.0356 66.5296C31.8138 66.6805 31.4005 67.0829 31.1282 67.435C30.8459 67.7871 30.3217 68.441 29.9688 68.8735C29.6159 69.3061 29.2328 69.8695 29.1219 70.1109C28.7388 70.9761 28.5573 72.988 28.7388 74.4467L28.7993 75L29.0917 74.497C29.6058 73.6319 30.241 72.8673 30.6846 72.5856C30.9266 72.4347 31.7231 71.9921 32.4591 71.5998C33.1951 71.1974 34.0218 70.6843 34.294 70.4429C34.9191 69.8996 36.6936 67.435 37.238 66.3485C37.853 65.1313 38.2361 64.6685 38.9217 64.2963C39.2544 64.1253 39.5468 63.9241 39.5771 63.8537C39.6275 63.7631 39.6476 63.7631 39.698 63.8537C39.7283 63.9241 40.0308 64.1253 40.3635 64.3064C41.0692 64.6786 41.3717 65.0508 42.0068 66.2982C42.2387 66.771 42.6319 67.4249 42.8739 67.7569C43.126 68.0889 43.499 68.622 43.7208 68.954C44.6484 70.3222 45.1928 70.7547 47.3605 71.8915C48.8425 72.6661 49.3769 73.1389 50.0423 74.2757L50.4758 75L50.5565 74.3964C50.6775 73.5011 50.5666 71.4891 50.3448 70.7044C50.1129 69.8996 49.9213 69.5979 48.8224 68.28C48.3787 67.7368 47.9654 67.2036 47.9049 67.103C47.8444 66.9923 47.5823 66.761 47.3201 66.59C47.058 66.4089 46.4833 65.9159 46.0397 65.4934C44.9307 64.4271 44.3661 64.1454 43.3175 64.1454C42.8739 64.1454 42.1682 64.1756 41.7447 64.2259C40.9986 64.3064 40.9482 64.3064 40.3433 63.9945C39.9904 63.8235 39.6577 63.6827 39.5972 63.6927C39.5367 63.6927 39.2343 63.8336 38.9318 63.9945Z" fill="white"/>
</g>
</svg>
