<svg width="150" height="142" viewBox="0 0 150 142" fill="none" xmlns="http://www.w3.org/2000/svg">
<g opacity="0.1">
<path d="M57.4618 0.407049C56.562 0.597516 55.1837 0.749889 54.3988 0.768936C53.078 0.768936 52.8482 0.826076 51.7379 1.47366C51.0679 1.87364 50.1107 2.55932 49.613 2.9974C48.7324 3.77831 47.5073 5.75916 47.5073 6.3877C47.5073 6.55912 47.0287 7.14957 46.4352 7.70193C45.4972 8.53998 44.4061 10.1018 44.7506 10.1018C45.0952 10.1018 45.9949 9.24471 46.4161 8.52093C47.1435 7.30195 47.335 7.18767 48.139 7.53051C49.1919 7.96858 51.2211 7.89239 52.4462 7.37813C54.284 6.61627 57.8255 3.96878 59.6249 2.02602C60.5438 1.03559 61.2904 0.178489 61.2904 0.121348C61.2904 -0.107211 59.0315 0.064209 57.4618 0.407049Z" fill="#242020"/>
<path d="M88.6641 0.121346C88.6641 0.178487 89.4106 1.01654 90.3104 1.98792C92.1098 3.94973 95.9959 6.82578 97.6614 7.45432C98.8291 7.89239 100.839 7.93049 101.815 7.5305C102.619 7.18766 102.811 7.30194 103.5 8.48284C103.902 9.14947 104.898 10.1018 105.223 10.1018C105.529 10.1018 104.438 8.50189 103.634 7.79716C103.002 7.2448 102.6 6.69245 102.447 6.19724C101.892 4.3878 100.475 2.80693 98.2165 1.47366C97.1254 0.84512 96.8765 0.768934 95.6322 0.768934C94.8665 0.768934 93.4116 0.597514 92.397 0.388C90.6167 0.0261135 88.6641 -0.12626 88.6641 0.121346Z" fill="#242020"/>
<path d="M40.0418 2.92126C38.5486 3.56885 37.1129 4.46404 36.5577 5.07353C36.3854 5.28305 35.926 6.02587 35.524 6.76869C35.1411 7.49246 34.7008 8.23528 34.5668 8.38765C34.4328 8.54003 34.2414 9.05429 34.1074 9.51141C33.9925 9.98758 33.6671 10.7875 33.3991 11.3018C32.5951 12.8255 32.5951 13.7588 33.4374 15.3397C34.0691 16.5015 34.1457 16.7682 34.05 17.5872C33.916 18.6538 34.2223 18.6348 34.4137 17.5682C34.5285 17.0348 34.9306 16.4634 36.2132 15.1492C38.1658 13.1303 39.5058 11.2827 39.9078 10.1019C40.0609 9.62569 40.2524 8.27337 40.3098 7.09248C40.4438 4.92116 40.6544 4.06406 41.3818 3.05459C42.071 2.10225 41.9561 2.0832 40.0418 2.92126Z" fill="#242020"/>
<path d="M108.88 3.56893C109.474 4.71173 109.55 5.07362 109.646 6.67354C109.78 9.24484 109.876 9.83529 110.335 10.7305C110.909 11.8923 112.269 13.6065 113.934 15.3398C115.044 16.4826 115.446 17.0349 115.542 17.5682C115.753 18.6729 115.963 18.5587 115.944 17.3587C115.944 16.4635 116.04 16.1207 116.518 15.416C117.341 14.197 117.322 12.7494 116.48 11.0352C116.135 10.3495 115.848 9.66387 115.848 9.5115C115.848 9.35912 115.733 9.03533 115.58 8.76868C113.475 4.88315 112.958 4.3308 110.584 3.22609C108.057 2.06425 108.114 2.06425 108.88 3.56893Z" fill="#242020"/>
<path d="M27.2546 12.578C24.7659 14.1208 23.9811 14.9969 23.1196 17.2444C22.7176 18.292 22.3156 19.4538 22.239 19.8157C22.1433 20.1776 21.9327 21.0728 21.7413 21.8156C21.0713 24.5583 21.1861 25.4916 22.4305 26.9963C23.2919 28.0058 23.6173 28.901 23.4642 29.7962C23.3685 30.3485 23.3685 30.3676 23.6556 30.0247C23.8279 29.8152 23.9619 29.32 23.9619 28.92C23.9619 28.1582 24.5554 27.0154 25.4168 26.1011C25.9337 25.5488 27.4651 22.8251 28.0011 21.4728C28.4414 20.349 28.5563 19.1681 28.3457 17.5301C28.0011 14.8445 28.0777 14.216 29.0349 11.9494C29.2455 11.4352 28.9583 11.5495 27.2546 12.578Z" fill="#242020"/>
<path d="M120.824 11.7017C120.824 11.7398 121.054 12.254 121.322 12.8445C121.877 14.0444 121.915 14.8825 121.609 17.6633C121.475 18.9775 121.494 19.6442 121.667 20.4251C121.992 21.7964 123.523 24.7296 124.672 26.2343C125.878 27.8152 125.974 28.0057 126.089 29.0723C126.146 29.5675 126.28 30.0817 126.395 30.177C126.548 30.3293 126.586 30.2722 126.567 30.0056C126.433 28.7866 126.586 28.1961 127.237 27.3962C128.711 25.5867 128.998 24.2344 128.29 22.2345C128.08 21.6441 127.907 20.8441 127.907 20.4822C127.907 20.1013 127.773 19.5489 127.62 19.2632C127.467 18.9585 127.084 18.0061 126.778 17.149C126.452 16.2919 125.974 15.3015 125.725 14.9587C124.883 13.873 120.824 11.1684 120.824 11.7017Z" fill="#242020"/>
<path d="M45.974 12.8827C43.3322 13.435 41.4562 14.3302 40.4225 15.5492C40.0779 15.9492 39.6376 16.1778 38.891 16.3492C37.953 16.5587 36.2109 17.3967 36.2109 17.6444C36.2109 17.8729 37.7041 17.4348 38.6613 16.9206L39.7142 16.3682L40.4033 17.0349C42.2028 18.7872 44.3851 18.8062 49.3815 17.1301C50.8747 16.6349 55.0288 14.4826 55.2776 14.0826C55.4691 13.7779 54.531 13.5874 52.1381 13.4541C50.8555 13.3779 49.4772 13.2065 49.0752 13.0732C47.85 12.6541 47.2566 12.616 45.974 12.8827Z" fill="#242020"/>
<path d="M101.337 12.9588C100.667 13.1874 99.4991 13.3588 97.8911 13.454C96.551 13.5302 95.2493 13.6636 94.9813 13.7588C94.5027 13.9302 94.5027 13.9493 94.8856 14.2159C96.149 15.1682 99.2885 16.711 101.031 17.2634C105.912 18.8062 107.769 18.749 109.549 17.0348L110.238 16.3682L111.33 16.9396C111.923 17.2634 112.727 17.5681 113.129 17.6253C113.818 17.7395 113.818 17.7395 113.455 17.4158C112.919 16.9777 111.674 16.4444 110.908 16.3301C110.526 16.273 109.913 15.873 109.243 15.2825C108.018 14.1588 106.716 13.5112 104.84 13.0731C102.715 12.5969 102.409 12.5779 101.337 12.9588Z" fill="#242020"/>
<path d="M34.6797 22.5394C33.7799 22.8822 32.8419 23.2822 32.5739 23.4346C31.8847 23.8155 29.8938 25.7202 29.5876 26.3296C29.4344 26.6344 29.1473 26.863 28.9558 26.863C28.2667 26.863 25.4718 28.6343 25.7589 28.9009C25.9121 29.0533 27.5201 28.3295 28.0752 27.8343C29.0324 27.0153 29.4153 26.9391 30.0853 27.4915C30.9084 28.1962 31.923 28.4819 33.4354 28.4438C34.5457 28.4438 35.12 28.2915 36.8811 27.5867C38.0489 27.1106 39.5229 26.463 40.1738 26.1392C41.667 25.3773 45.4382 22.5203 45.285 22.2537C45.2085 22.1394 43.9641 22.0822 41.8775 22.1203C40.0781 22.1584 38.0872 22.1203 37.4554 22.0441C36.4217 21.9108 36.1346 21.968 34.6797 22.5394Z" fill="#242020"/>
<path d="M111.541 22.1203C111.216 22.2155 109.627 22.2346 107.885 22.1774C105.779 22.0822 104.765 22.1203 104.669 22.2536C104.611 22.3679 105.435 23.1298 106.602 24.025C108.842 25.7201 111.369 27.0343 114.355 28.0248C115.829 28.52 116.27 28.5962 117.169 28.4819C118.203 28.3676 119.218 27.9676 120.271 27.301C120.787 26.9772 120.807 26.9962 121.802 27.7581C122.817 28.5009 124.08 29.0914 124.08 28.7866C124.08 28.3485 121.668 26.8629 120.941 26.8629C120.787 26.8629 120.519 26.6153 120.366 26.3106C119.964 25.5487 118.471 24.1011 117.476 23.5297C116.251 22.806 113.628 21.9108 112.824 21.9298C112.441 21.9298 111.867 22.0251 111.541 22.1203Z" fill="#242020"/>
<path d="M16.3981 23.7773C14.9624 24.9773 13.6798 26.4058 13.1821 27.3581C12.6078 28.4818 12.0526 32.2721 12.0335 35.2434C11.9952 38.5956 12.1866 39.0718 14.0818 40.5384C15.2112 41.4336 15.3261 41.586 15.5558 42.5764C15.8621 43.9287 16.0918 43.5859 15.977 41.9478C15.9004 40.7669 15.9387 40.5574 16.647 39.1289C17.6616 37.0528 18.6187 33.6816 18.6187 32.1388C18.6187 31.415 18.4273 30.3294 18.121 29.3389C17.2213 26.3486 17.1639 25.8153 17.585 24.1392C17.7956 23.3392 17.9104 22.6726 17.853 22.6726C17.7956 22.6726 17.1256 23.1678 16.3981 23.7773Z" fill="#242020"/>
<path d="M132.177 23.0726C132.253 23.3202 132.406 24.1392 132.54 24.863C132.732 26.1581 132.713 26.2915 132.043 28.558C131.583 30.177 131.354 31.3198 131.354 32.1197C131.354 33.5292 132.387 37.3385 133.249 38.9956C134.014 40.5384 134.206 41.3383 134.034 42.3097C133.938 42.7668 133.938 43.2621 134.034 43.4144C134.129 43.5858 134.225 43.4525 134.302 42.9573C134.531 41.7955 134.78 41.4145 136.044 40.4241C137.805 39.0146 137.958 38.5766 137.92 35.2434C137.901 32.1007 137.345 28.4628 136.675 27.1676C136.273 26.3677 133.88 23.8725 132.713 23.0535L132.062 22.5964L132.177 23.0726Z" fill="#242020"/>
<path d="M33.2451 31.9103C31.9433 32.196 30.4884 32.3674 29.4355 32.3865C27.8084 32.3865 27.6744 32.4246 26.2003 33.1864C23.6926 34.5006 21.7974 36.5386 21.2039 38.5385C21.1465 38.71 20.8594 38.9576 20.5722 39.0718C19.8256 39.3385 18.5622 40.4242 18.1602 41.1289C17.5093 42.2526 18.543 41.6812 19.9596 40.1385L21.0317 38.9766L22.0654 39.4337C22.8886 39.8147 23.4246 39.9099 24.6497 39.9099C26.1046 39.9099 26.3343 39.8528 27.6169 39.1671C30.4884 37.6814 33.1685 35.7387 35.1211 33.7578C36.1357 32.6912 36.978 31.7389 36.978 31.6436C36.978 31.3198 35.5231 31.4341 33.2451 31.9103Z" fill="#242020"/>
<path d="M112.977 31.6246C112.977 31.9484 116.499 35.472 117.667 36.291C119.811 37.8148 122.644 39.3956 123.773 39.7194C125.19 40.1194 126.741 40.0051 128.004 39.3956L128.904 38.9576L129.899 40.0432C130.876 41.1098 131.852 41.8527 132.043 41.6812C132.254 41.4527 130.799 39.8718 129.88 39.3385C129.057 38.8623 128.827 38.5957 128.463 37.7195C127.851 36.2339 125.783 34.253 123.773 33.1864C122.299 32.4246 122.127 32.3865 120.557 32.3865C119.504 32.3865 118.088 32.215 116.69 31.9103C114.393 31.4151 112.977 31.3008 112.977 31.6246Z" fill="#242020"/>
<path d="M7.21128 37.4718C6.52212 38.4051 5.67982 39.7003 5.33524 40.386L4.72266 41.624L4.76094 44.7667C4.79923 47.0142 4.89495 48.1189 5.10552 48.6713C5.25867 49.0903 5.50753 50.1379 5.66068 51.014C6.08183 53.4139 7.13471 54.8805 8.8576 55.471C10.0828 55.89 10.9251 56.5566 11.4037 57.4899C11.7482 58.1565 11.9014 58.3089 11.9971 58.0803C12.0545 57.9089 11.9397 57.4899 11.7291 57.128C11.2888 56.4042 11.1931 54.5948 11.5185 53.2425C11.6334 52.8235 11.7674 51.2235 11.8248 49.6998C11.9588 46.2143 11.7482 45.2619 10.1785 42.443C8.76188 39.8908 8.60874 39.3384 8.68531 37.3766C8.70445 36.5195 8.68531 35.8148 8.60874 35.8148C8.53217 35.8148 7.91958 36.5576 7.21128 37.4718Z" fill="#242020"/>
<path d="M141.328 37.3958C141.328 39.491 141.252 39.7576 139.95 42.1004C138.169 45.3192 138.169 45.3383 138.189 49.0524C138.189 50.8999 138.284 52.6332 138.418 53.1093C138.801 54.4616 138.744 56.1758 138.303 57.052C137.729 58.1758 137.997 58.5186 138.61 57.4139C139.05 56.5949 139.28 56.3854 140.677 55.7187C141.539 55.2997 142.515 54.7093 142.821 54.4045C143.568 53.6998 144.085 52.4237 144.353 50.7475C144.468 50.0047 144.697 49.0905 144.85 48.7096C145.061 48.1953 145.157 47.1668 145.195 44.824L145.233 41.6242L144.621 40.3671C144.085 39.2814 141.634 35.815 141.405 35.815C141.366 35.815 141.328 36.5197 141.328 37.3958Z" fill="#242020"/>
<path d="M27.9809 42.1764C26.9855 42.5383 25.6837 42.9955 25.1094 43.205C24.5351 43.4145 23.5397 43.6621 22.9079 43.7192C21.3573 43.9097 20.6682 44.2906 18.9453 45.9477C17.2798 47.5476 16.227 49.4142 15.9972 51.1855C15.9015 51.9855 15.7675 52.2902 15.4038 52.5188C14.7912 52.9188 13.9106 54.233 13.6618 55.1091C13.4703 55.7567 13.4895 55.7948 13.8149 55.6234C14.2552 55.3948 14.9635 54.5187 14.9635 54.2139C14.9635 54.0806 15.2124 53.5854 15.5378 53.0902C16.0738 52.2331 16.1121 52.214 16.6864 52.4236C17.6818 52.7664 20.0747 52.5188 21.3191 51.9474C23.0611 51.1665 27.2535 46.9762 29.0529 44.2335C29.8378 43.0526 30.4695 41.9479 30.4695 41.7955C30.4695 41.3955 29.991 41.4717 27.9809 42.1764Z" fill="#242020"/>
<path d="M119.484 41.8336C119.484 42.005 119.848 42.6717 120.308 43.3193C120.767 43.9478 121.36 44.8621 121.628 45.3382C122.413 46.6905 127.257 51.2808 128.558 51.9093C129.803 52.5188 131.927 52.7474 133.114 52.4236C133.957 52.195 134.129 52.3474 134.895 53.9664C135.182 54.5568 135.66 55.2234 135.967 55.433L136.484 55.8139L136.292 55.1092C136.043 54.214 135.163 52.9188 134.531 52.4998C134.186 52.2903 134.033 52.0236 134.033 51.6427C134.033 50.7284 133.306 48.7285 132.617 47.7C131.87 46.6143 129.783 44.6525 128.807 44.1573C128.463 43.9859 127.678 43.7954 127.046 43.7192C126.414 43.6431 125.476 43.4335 124.94 43.2431C119.714 41.3384 119.484 41.2622 119.484 41.8336Z" fill="#242020"/>
<path d="M147.378 51.1474C147.32 51.3569 147.205 51.9093 147.148 52.3854C146.842 54.271 146.363 55.1091 144.161 57.4518C142.802 58.9184 141.864 60.1184 141.501 60.8612C140.792 62.2897 139.663 66.4419 139.414 68.537C139.127 70.8417 138.916 71.4702 138.15 72.194C137.787 72.5559 137.48 72.9939 137.48 73.1844C137.48 73.432 137.691 73.2987 138.304 72.6892C139.089 71.9083 140.218 71.4321 141.271 71.4321C141.462 71.4321 142.056 71.2988 142.592 71.1464C144.027 70.7274 145.176 69.6036 146.018 67.8513C146.401 67.0514 146.976 66.0419 147.282 65.6229C147.799 64.8991 149.349 60.8041 149.713 59.1851C150.058 57.7375 149.426 55.071 148.028 51.9473C147.607 51.0331 147.473 50.8426 147.378 51.1474Z" fill="#242020"/>
<path d="M1.697 52.5569C0.797267 54.4997 0.203826 56.671 0.184682 58.0614C0.165539 58.9185 0.395258 59.7946 1.16099 62.0041C1.697 63.5849 2.32873 65.1087 2.57759 65.4325C2.80731 65.7372 3.38161 66.7657 3.86019 67.7181C4.9705 69.8703 6.11909 70.8989 7.82284 71.2417C10.6369 71.775 10.8283 71.8512 11.6706 72.6702C12.6469 73.6416 12.8001 73.2225 11.8238 72.194C11.0389 71.375 10.8092 70.7274 10.5412 68.518C10.2732 66.3277 9.20116 62.3469 8.45457 60.8613C8.10999 60.1184 7.2294 58.9947 5.98509 57.6805C4.93221 56.5567 3.87933 55.2806 3.64961 54.8235C3.15189 53.8711 2.71159 52.3283 2.71159 51.5665C2.71159 50.6903 2.4053 50.976 1.697 52.5569Z" fill="#242020"/>
<path d="M123.314 52.3664C123.314 52.5569 123.736 53.852 124.233 55.2615C124.961 57.2804 125.497 58.3852 126.856 60.5565C128.789 63.623 129.747 64.7087 131.087 65.3943C132.197 65.9467 133.882 66.3276 134.513 66.1752C135.088 66.0419 135.317 66.4419 135.547 68.0799C135.662 68.8608 135.892 69.5656 136.179 69.9465L136.619 70.575L136.676 69.9465C136.753 69.1084 136.255 67.4704 135.681 66.7086C135.279 66.1562 135.241 65.9848 135.413 65.3753C135.681 64.423 135.49 62.004 135.068 60.9565C134.647 59.8898 133.058 57.3757 132.427 56.7852C132.178 56.5567 131.393 56.1376 130.685 55.89C129.995 55.6424 128.502 54.8425 127.373 54.1187C124.999 52.614 124.616 52.4045 123.87 52.195C123.41 52.0617 123.314 52.0807 123.314 52.3664Z" fill="#242020"/>
<path d="M24.1715 53.1473C23.2909 53.6806 22.1997 54.3663 21.702 54.7092C21.2234 55.033 20.1897 55.5472 19.4048 55.8329C18.6199 56.1186 17.8159 56.5186 17.6053 56.7091C16.9353 57.2995 15.4038 59.7565 14.9635 60.8993C14.4658 62.2516 14.2744 64.2135 14.5615 65.242C14.753 65.9277 14.7147 66.061 14.2744 66.6895C14.0064 67.0705 13.6618 67.8133 13.5087 68.3085C13.2407 69.2037 13.2024 70.4798 13.4321 70.4798C13.6618 70.4798 14.3893 68.8228 14.4084 68.2704C14.4084 67.9657 14.5233 67.3752 14.6381 66.9562L14.8678 66.2134L16.0739 66.1753C17.3756 66.1181 18.8496 65.5467 20.0748 64.6325C20.7257 64.1373 23.0803 60.747 24.4777 58.2899C25.0329 57.3186 26.6409 52.9569 26.6409 52.4426C26.6409 51.9474 25.7029 52.214 24.1715 53.1473Z" fill="#242020"/>
<path d="M24.8235 63.0134C24.5172 63.2229 23.3495 64.3276 22.2583 65.5085C21.1672 66.6894 19.8846 67.8513 19.4443 68.1179C18.1425 68.8798 17.5491 69.6988 16.8982 71.6606C15.9028 74.67 15.9219 76.4984 16.9748 78.8412C17.4534 79.8697 17.4534 79.9459 17.1662 80.7459C16.8217 81.7172 16.8217 83.26 17.1471 84.1743C17.53 85.2599 17.7405 84.5361 17.7405 82.1172V79.9459L18.6211 79.7364C20.6312 79.2221 22.6603 77.4127 23.3878 75.4699C23.6175 74.8795 24.1918 73.07 24.6512 71.4511C25.3213 69.1274 25.5318 68.0989 25.6276 66.4037C25.8573 62.4039 25.8573 62.3849 24.8235 63.0134Z" fill="#242020"/>
<path d="M124.214 62.8041C124.176 62.8994 124.138 63.2041 124.176 63.5279C124.54 69.1276 124.425 68.5181 125.746 72.8608C126.703 76.0987 127.143 76.9368 128.349 78.0415C129.345 78.9557 130.149 79.4128 131.355 79.7176L132.216 79.9271V82.0222C132.216 83.1841 132.312 84.2507 132.427 84.4412C132.599 84.765 132.676 84.6888 132.886 83.9269C133.154 82.9746 133.039 81.0318 132.676 80.3652C132.522 80.0604 132.58 79.7938 132.905 79.1081C133.977 76.8987 134.054 74.4607 133.097 71.718C132.427 69.7371 132.101 69.261 130.972 68.48C130.512 68.1563 129.058 66.823 127.737 65.4897C125.21 62.9565 124.463 62.3851 124.214 62.8041Z" fill="#242020"/>
<path d="M0.242204 68.8608C-0.0640877 70.7084 -0.083231 73.7177 0.203918 75.051C0.337921 75.7367 0.739929 76.5938 1.33337 77.4699C3.91771 81.3364 4.43458 82.0411 4.98973 82.384C5.31517 82.5935 6.15747 83.4315 6.82749 84.2315C7.80379 85.3933 8.32066 85.8124 9.33525 86.3076C10.5987 86.9361 10.637 86.9361 13.0299 86.898L15.442 86.8409L16.4565 87.5075C16.9926 87.8694 17.452 88.098 17.452 88.0218C17.452 87.7551 16.9734 87.298 16.0737 86.6885C15.174 86.0981 14.6571 85.26 13.5085 82.4792C12.9725 81.2031 10.2541 76.7652 9.54583 76.0224C8.76096 75.2224 7.4975 74.2701 5.2386 72.8606C3.15198 71.5655 2.17567 70.5369 1.31423 68.7465C0.988792 68.0418 0.644213 67.4514 0.586783 67.4514C0.529353 67.4323 0.357064 68.0799 0.242204 68.8608Z" fill="#242020"/>
<path d="M148.602 68.8037C147.702 70.7084 146.956 71.4322 143.893 73.4321C142.285 74.4606 140.868 75.5463 140.371 76.1177C139.318 77.3176 137.04 81.146 136.121 83.2983C135.125 85.6029 134.742 86.1743 133.67 86.8409C133.154 87.1838 132.694 87.6028 132.637 87.7933C132.56 88.098 132.713 88.0599 133.498 87.5647C134.57 86.8981 135.719 86.6886 137.289 86.8981C139.509 87.1838 141.443 86.2886 143.223 84.1363C143.836 83.3935 144.62 82.5935 144.946 82.384C145.29 82.1745 145.96 81.3936 146.458 80.6698C146.956 79.927 147.817 78.689 148.373 77.908C149.636 76.0986 150 74.9177 150 72.4797C150 70.5941 149.598 67.4133 149.368 67.4514C149.311 67.4514 148.966 68.0609 148.602 68.8037Z" fill="#242020"/>
<path d="M26.5824 73.9082C26.2187 74.3273 25.4147 75.6224 24.8021 76.7843C24.1895 77.9461 23.2132 79.4127 22.6389 80.0603C21.1649 81.7364 21.0309 82.1174 21.0117 85.1458C21.0117 87.5076 21.05 87.8314 21.5286 89.0123C22.0455 90.3455 22.5432 91.1645 23.3281 92.0216C23.6918 92.4216 23.7875 92.7454 23.8258 93.9263C23.9024 95.3739 24.4766 97.069 25.0701 97.5642C25.319 97.7928 25.3572 97.6785 25.2615 96.65C25.2041 96.0214 24.9744 95.1643 24.7638 94.7453C24.5532 94.3263 24.3235 93.6787 24.2469 93.2978C24.1129 92.6311 24.1321 92.6121 25.0318 92.174C27.1376 91.1645 28.5159 88.9932 28.7456 86.2886C29.0136 83.1649 28.9753 79.108 28.669 77.8509C28.4967 77.2033 28.2479 75.9462 28.0756 75.0891C27.6544 72.8035 27.597 72.7464 26.5824 73.9082Z" fill="#242020"/>
<path d="M122.279 73.2987C122.203 73.413 121.667 76.0033 121.207 78.4794C120.997 79.5841 120.997 83.1268 121.188 85.7552C121.322 87.3933 121.456 88.0218 121.916 88.9932C122.586 90.4026 123.849 91.7168 125.017 92.2311C125.783 92.593 125.84 92.6501 125.725 93.2025C125.649 93.5263 125.381 94.3453 125.113 95.0119C124.806 95.7928 124.653 96.4976 124.691 97.0118L124.749 97.8118L125.189 97.1451C125.783 96.2119 126.185 94.7834 126.185 93.5644C126.185 92.6692 126.261 92.4406 126.855 91.7549C128.463 89.9074 129.152 87.5266 128.999 84.5362C128.865 82.0983 128.616 81.4507 127.295 80.0031C126.701 79.3746 125.802 78.0223 125.132 76.7462C123.734 74.1177 122.624 72.7654 122.279 73.2987Z" fill="#242020"/>
<path d="M31.5603 83.2031C31.1391 83.6603 30.9285 84.2697 30.1437 87.241C29.7416 88.8219 29.1865 90.3647 28.7271 91.2218C28.1145 92.3836 27.9805 92.8217 27.9805 93.6979C27.9996 95.2597 28.6505 98.0214 29.3588 99.4309C30.0288 100.726 31.9048 102.897 32.7663 103.335C33.1874 103.545 33.3214 103.812 33.4937 104.65C33.7617 106.002 34.47 107.354 35.3315 108.173C35.7143 108.535 36.0206 108.802 36.0206 108.745C36.0015 108.154 35.3506 106.516 34.9103 105.964C34.604 105.564 34.1829 104.897 33.9723 104.497L33.5894 103.735L34.604 102.802C35.7909 101.736 36.5184 100.383 36.8055 98.7071C36.9969 97.6977 36.9587 97.2405 36.5949 95.4882C35.5995 90.6313 34.9678 88.5743 33.5512 85.6602C32.8046 84.1174 32.1154 82.8603 32.0197 82.8603C31.9431 82.8603 31.7325 83.0127 31.5603 83.2031Z" fill="#242020"/>
<path d="M116.403 85.6601C114.986 88.5933 114.412 90.4598 113.455 95.1453C113.053 97.1262 113.015 97.6023 113.187 98.6499C113.474 100.421 114.163 101.735 115.369 102.821L116.422 103.735L116.02 104.497C115.79 104.897 115.369 105.545 115.082 105.907C114.527 106.611 114.125 107.621 114.125 108.249C114.125 108.611 114.182 108.592 114.718 108.078C115.427 107.411 116.135 106.097 116.441 104.84C116.633 104.059 116.901 103.697 118.126 102.554C118.93 101.793 119.868 100.707 120.232 100.097C121.074 98.707 121.763 96.3262 121.916 94.3453C122.031 92.7835 122.031 92.7645 121.246 91.2788C120.768 90.3455 120.251 88.917 119.887 87.5076C119.026 84.0982 118.509 82.8602 117.934 82.8602C117.839 82.8602 117.169 84.1173 116.403 85.6601Z" fill="#242020"/>
<path d="M3.19064 85.3364C3.34379 87.222 4.0138 89.9647 4.66467 91.4313C4.93268 92.0027 5.48783 92.8217 5.88984 93.2407C7.59359 94.974 10.6757 97.4881 11.9965 98.2119C12.7814 98.65 13.7577 99.2595 14.1597 99.6023C15.3275 100.517 16.9546 101.183 18.2947 101.278C19.2136 101.355 19.807 101.278 21.0513 100.878C22.9082 100.307 23.6931 100.269 25.0522 100.745C25.9711 101.05 26.0286 101.05 25.8754 100.764C25.7797 100.574 25.282 100.326 24.7842 100.174C23.7122 99.888 22.3913 98.7452 21.1853 97.0501C20.7259 96.4215 19.1178 94.7073 17.6055 93.2217C14.5235 90.1933 14.1789 89.9837 9.79507 88.4981C6.50243 87.3553 5.75584 86.8791 3.78408 84.5745L3.05664 83.7174L3.19064 85.3364Z" fill="#242020"/>
<path d="M145.904 84.879C144.507 86.6313 143.262 87.4313 140.238 88.4598C135.873 89.9645 135.452 90.2121 132.542 93.031C131.125 94.4024 129.498 96.1547 128.924 96.9165C127.431 98.9164 126.474 99.7735 125.268 100.135C124.712 100.326 124.157 100.612 124.062 100.783C123.908 101.088 123.985 101.088 124.942 100.745C126.321 100.269 127.01 100.288 128.905 100.878C131.566 101.716 133.442 101.316 136.122 99.3545C136.792 98.8783 137.692 98.3069 138.151 98.1165C139.242 97.6403 144.047 93.4881 144.775 92.4025C145.751 90.9168 146.976 86.2123 146.823 84.46L146.766 83.7934L145.904 84.879Z" fill="#242020"/>
<path d="M38.5661 91.6597C38.1641 92.193 38.0684 92.8025 37.9344 96.2881C37.8195 98.9736 37.7047 100.135 37.4558 100.764C36.8049 102.497 37.1112 103.983 38.8533 107.335C39.8296 109.183 41.8205 111.125 43.7348 112.078C44.96 112.687 45.228 112.878 45.4003 113.449C45.8023 114.649 48.1569 117.144 48.8843 117.144C49.2672 117.144 48.042 115.259 47.238 114.592C46.7594 114.211 46.1277 113.582 45.8597 113.221L45.3428 112.554L45.8406 112.04C47.2189 110.592 47.8506 107.602 47.238 105.43C46.7212 103.64 43.2754 96.7833 42.3565 95.7357C41.9162 95.2405 41.0547 94.1739 40.4422 93.3739C39.0638 91.5645 38.815 91.3359 38.5661 91.6597Z" fill="#242020"/>
<path d="M110.643 91.9453C110.394 92.25 109.743 93.0309 109.245 93.7166C108.728 94.4023 107.982 95.3356 107.561 95.8118C106.872 96.6117 103.943 102.23 103.043 104.516C102.028 107.087 102.449 110.04 104.096 111.982C104.574 112.554 104.574 112.611 104.287 113.03C104.134 113.278 103.502 113.906 102.909 114.42C102.028 115.163 100.918 116.744 100.918 117.239C100.918 117.296 101.301 117.087 101.76 116.782C102.909 115.982 104.096 114.611 104.479 113.601C104.766 112.839 104.919 112.706 106.259 112.078C109.092 110.706 111.313 107.849 112.634 103.888L113.036 102.63L112.615 101.183C112.193 99.7544 112.117 99.0116 111.944 94.7642C111.868 92.8024 111.6 91.431 111.274 91.431C111.198 91.431 110.911 91.6596 110.643 91.9453Z" fill="#242020"/>
<path d="M9.79492 99.4308C9.79492 99.7355 11.0392 102.859 11.5752 103.926C13.0301 106.745 14.4084 108.097 17.2608 109.526C17.95 109.868 19.0794 110.478 19.7877 110.897C20.496 111.316 21.6063 111.773 22.2572 111.925C22.9272 112.078 24.1141 112.497 24.9181 112.859C27.6747 114.097 29.8379 114.211 31.6948 113.221C34.3174 111.811 34.4897 111.754 35.6 111.792C36.1935 111.792 36.9592 111.868 37.2655 111.925L37.8398 112.04L37.3995 111.716C37.1698 111.544 36.4615 111.335 35.8489 111.24C34.5472 111.068 33.2263 110.306 31.5225 108.764C30.4122 107.754 26.8324 105.373 24.8224 104.269C23.0803 103.335 22.1806 103.107 18.2371 102.593C14.1404 102.059 13.5853 101.869 11.3072 100.288C10.4841 99.6974 9.79492 99.3165 9.79492 99.4308Z" fill="#242020"/>
<path d="M138.916 100.135C136.791 101.735 135.853 102.059 131.776 102.573C127.832 103.088 126.894 103.316 125.133 104.269C123.123 105.354 119.543 107.754 118.452 108.745C116.672 110.364 115.466 111.049 114.164 111.24C113.513 111.335 112.785 111.544 112.556 111.716C112.115 112.04 112.115 112.04 112.766 111.906C114.547 111.544 116.04 111.849 117.782 112.973C119.735 114.211 122.013 114.154 125.229 112.802C126.224 112.382 127.392 111.963 127.813 111.887C128.655 111.735 134.456 108.687 135.585 107.792C136.389 107.164 137.691 105.297 138.591 103.526C139.241 102.231 140.199 99.6403 140.122 99.4117C140.084 99.3355 139.548 99.6593 138.916 100.135Z" fill="#242020"/>
<path d="M20.1516 113.468C20.9173 114.763 22.6402 117.087 23.6356 118.211C25.282 120.039 26.5263 120.82 29.0723 121.62C30.3166 122.001 32.0778 122.573 33.0158 122.877C34.1261 123.239 35.0833 123.43 35.849 123.43C36.4999 123.43 37.8016 123.62 38.7588 123.83C40.922 124.344 43.1235 124.268 44.5018 123.658C45.0187 123.43 45.9758 122.744 46.665 122.115C48.1964 120.725 48.8664 120.401 50.4936 120.249C52.2931 120.077 51.5656 119.754 49.4982 119.792C47.7561 119.83 46.7224 119.506 44.4826 118.192C43.2766 117.506 37.5336 115.24 35.6576 114.744C34.3941 114.402 31.3121 114.363 28.1343 114.668C25.1862 114.954 23.9036 114.706 21.2044 113.411C20.4961 113.049 19.8644 112.764 19.807 112.764C19.7495 112.764 19.9027 113.087 20.1516 113.468Z" fill="#242020"/>
<path d="M128.597 113.468C127.85 113.83 126.606 114.306 125.821 114.497C124.5 114.839 124.136 114.858 121.877 114.668C118.546 114.382 115.771 114.382 114.622 114.649C113.205 114.992 107.692 117.087 106.18 117.868C102.428 119.811 101.892 119.982 100.092 119.811C99.4414 119.753 98.8288 119.792 98.5991 119.925C98.2545 120.096 98.3885 120.153 99.4414 120.249C101.145 120.401 101.796 120.706 103.251 122.077C103.94 122.725 104.936 123.429 105.433 123.658C106.716 124.229 109.185 124.344 110.851 123.906C111.521 123.734 112.957 123.525 114.029 123.429C115.101 123.353 116.153 123.201 116.345 123.087C116.555 122.972 117.915 122.534 119.389 122.096C120.863 121.658 122.509 121.087 123.026 120.839C124.251 120.268 125.706 119.011 127.103 117.277C128.654 115.373 130.415 112.725 130.071 112.801C129.994 112.801 129.324 113.125 128.597 113.468Z" fill="#242020"/>
<path d="M73.9238 121.163C72.9092 121.715 72.8135 121.734 71.3395 121.601C70.4972 121.506 69.1572 121.449 68.3723 121.43C66.3814 121.43 65.1754 122.02 63.127 123.982C62.2847 124.801 61.2319 125.696 60.8298 125.963C60.4087 126.248 59.6238 127.01 59.107 127.677C58.5709 128.344 57.5755 129.582 56.9055 130.401C56.2355 131.22 55.508 132.286 55.2974 132.743C54.57 134.381 54.2254 138.191 54.57 140.953L54.6849 142L55.24 141.048C56.2163 139.41 57.4223 137.962 58.2646 137.429C58.7241 137.143 60.2364 136.305 61.6339 135.562C63.0313 134.8 64.6011 133.829 65.1179 133.372C66.3048 132.343 69.674 127.677 70.7078 125.62C71.8755 123.315 72.603 122.439 73.9047 121.734C74.5364 121.411 75.0916 121.03 75.149 120.896C75.2447 120.725 75.283 120.725 75.3787 120.896C75.4362 121.03 76.0105 121.411 76.6422 121.753C77.9822 122.458 78.5565 123.163 79.7625 125.525C80.2028 126.42 80.9494 127.658 81.4089 128.286C81.8874 128.915 82.5957 129.924 83.0169 130.553C84.7781 133.143 85.8118 133.962 89.9276 136.115C92.7417 137.581 93.7563 138.476 95.0197 140.629L95.8429 142L95.996 140.857C96.2257 139.162 96.0152 135.353 95.594 133.867C95.1537 132.343 94.79 131.772 92.7034 129.277C91.8611 128.248 91.0762 127.239 90.9613 127.048C90.8465 126.839 90.3488 126.401 89.851 126.077C89.3533 125.734 88.2621 124.801 87.4198 124.001C85.3141 121.982 84.2421 121.449 82.2512 121.449C81.4089 121.449 80.0688 121.506 79.2648 121.601C77.8482 121.753 77.7525 121.753 76.6039 121.163C75.9339 120.839 75.3022 120.573 75.1873 120.592C75.0724 120.592 74.4981 120.858 73.9238 121.163Z" fill="#242020"/>
</g>
</svg>
