<svg width="30" height="30" viewBox="0 0 30 30" fill="none" xmlns="http://www.w3.org/2000/svg">
<path d="M5.20907 0.0763702C4.80922 0.205301 4.34469 0.463161 3.94484 0.785488C3.33331 1.28363 1.1753 3.49889 0.840137 3.97359C0.504969 4.44829 0.228603 5.11053 0.0874803 5.75518C-0.0301222 6.31192 -0.0301222 7.7243 0.0933605 8.47444C0.481449 10.8948 1.7692 13.8837 3.62144 16.6967C6.19105 20.5881 9.52508 23.9285 13.2178 26.2962C16.9987 28.7224 20.3857 30 23.0317 30C24.3842 30 25.2662 29.7304 26.1776 29.0447C26.6715 28.6755 29.2529 26.0149 29.5234 25.5988C29.8468 25.1006 29.9997 24.5791 29.9997 23.9871C30.0056 23.4187 29.9291 23.1257 29.6528 22.5865C29.4705 22.2231 29.1824 21.9125 27.236 19.9551C24.5429 17.2534 24.3018 17.0718 23.2317 17.0073C22.6672 16.9663 22.2203 17.0601 21.6911 17.3296C21.3206 17.5113 21.0854 17.7164 19.9212 18.8592L18.5746 20.1837L18.0689 19.92C16.8047 19.2636 15.217 18.0681 13.8587 16.7553C12.1006 15.0499 10.754 13.3445 10.0425 11.9263L9.78381 11.4047L11.0304 10.1681C11.7419 9.45901 12.3769 8.77333 12.5181 8.55649C13.1825 7.54849 13.1825 6.32365 12.5122 5.30978C12.1829 4.81164 8.1609 0.797209 7.6552 0.474882C7.13187 0.129114 6.64382 -0.00567627 5.97937 0.000183105C5.68536 0.000183105 5.33843 0.035347 5.20907 0.0763702ZM6.58502 1.70558C6.99663 1.89312 11.048 5.94271 11.2656 6.37639C11.4832 6.81007 11.4596 7.23788 11.1892 7.65398C11.0892 7.81221 10.4071 8.52719 9.67797 9.24803C8.90179 10.0158 8.29614 10.6604 8.22558 10.7952C8.01977 11.2054 8.09033 11.6039 8.54898 12.524C9.33104 14.0946 10.4777 15.6242 12.2064 17.3941C13.9469 19.1815 15.6698 20.4943 17.4868 21.4378C18.1924 21.8012 18.3335 21.8539 18.6099 21.8539C18.7804 21.8539 19.0274 21.8129 19.1509 21.7602C19.3037 21.6957 19.8447 21.2093 20.7914 20.2716C21.6734 19.3984 22.3026 18.8241 22.4672 18.742C22.8377 18.5486 23.3022 18.5603 23.6492 18.7655C23.7903 18.8475 24.8663 19.8731 26.0365 21.0452C28.318 23.3249 28.4003 23.4304 28.4062 23.993C28.4062 24.5439 28.2357 24.7842 26.8656 26.179C25.1074 27.9606 25.0427 28.0133 24.2901 28.2653C23.4904 28.529 22.6672 28.5232 21.2677 28.236C18.8568 27.7437 15.27 25.9563 12.471 23.8465C8.63131 20.9514 5.27963 16.9721 3.32743 12.9753C1.52223 9.28319 1.10474 6.55807 2.10436 4.97573C2.39837 4.51276 5.07971 1.86382 5.41488 1.70558C5.76768 1.53563 6.23221 1.53563 6.58502 1.70558Z" fill="white"/>
</svg>
