<svg width="1359" height="330" viewBox="0 0 1359 330" fill="none" xmlns="http://www.w3.org/2000/svg">
<g opacity="0.2">
<path d="M36.3173 35.5689C34.9638 55.3293 34.7383 93.6647 34.7383 135.952L94.2895 31.6168C95.8685 28.0599 96.5453 24.8982 96.5453 22.5269C96.5453 15.4132 92.0338 11.8563 92.0338 11.8563H129.704C129.704 11.8563 118.877 17.7844 106.019 38.7305L41.0543 152.946C41.0543 152.946 100.831 258.467 120.907 293.246C133.314 314.587 146.848 322.491 146.848 322.491H94.064C94.064 322.491 102.636 317.353 102.636 308.659C102.636 306.287 101.959 303.521 100.38 300.755L34.7383 185.749C34.9638 237.521 36.0917 273.88 36.994 296.012C37.6707 309.449 48.2726 322.491 48.2726 322.491H0.225573C0.225573 322.491 10.3764 314.587 11.2787 298.383C12.4065 274.275 13.5344 231.198 13.5344 166.778C13.5344 105.916 12.1809 60.0719 11.0531 34.7784C10.1508 18.9701 0 11.8563 0 11.8563H47.3703C47.3703 11.8563 37.2196 22.1317 36.3173 35.5689Z" fill="#C31723"/>
<path d="M36.3173 35.5689C34.9638 55.3293 34.7383 93.6647 34.7383 135.952L94.2895 31.6168C95.8685 28.0599 96.5453 24.8982 96.5453 22.5269C96.5453 15.4132 92.0338 11.8563 92.0338 11.8563H129.704C129.704 11.8563 118.877 17.7844 106.019 38.7305L41.0543 152.946C41.0543 152.946 100.831 258.467 120.907 293.246C133.314 314.587 146.848 322.491 146.848 322.491H94.064C94.064 322.491 102.636 317.353 102.636 308.659C102.636 306.287 101.959 303.521 100.38 300.755L34.7383 185.749C34.9638 237.521 36.0917 273.88 36.994 296.012C37.6707 309.449 48.2726 322.491 48.2726 322.491H0.225573C0.225573 322.491 10.3764 314.587 11.2787 298.383C12.4065 274.275 13.5344 231.198 13.5344 166.778C13.5344 105.916 12.1809 60.0719 11.0531 34.7784C10.1508 18.9701 0 11.8563 0 11.8563H47.3703C47.3703 11.8563 37.2196 22.1317 36.3173 35.5689Z" fill="url(#paint0_linear_831_733)"/>
<path d="M173.894 114.216C172.766 124.491 172.089 136.347 172.089 148.994C172.089 163.222 172.992 177.844 174.571 191.677C177.503 215.784 184.947 242.659 190.361 257.677C201.639 288.503 223.971 310.635 247.431 310.635C251.942 310.635 256.454 309.844 260.965 308.263C288.711 297.593 309.012 256.096 312.847 211.832C313.749 203.138 314.2 190.886 314.2 178.24C314.2 165.593 313.524 151.76 312.17 139.904C309.012 113.82 302.922 87.3413 294.575 68.3712C281.943 39.9162 261.191 19.7605 239.085 19.7605C234.573 19.7605 230.062 20.5509 225.55 22.1317C198.707 32.4072 178.631 72.7186 173.894 114.216ZM150.885 199.976C149.532 189.305 149.081 178.24 149.081 167.964C149.081 86.9461 184.947 18.1796 222.618 3.95209C229.385 1.18564 235.926 0 242.694 0C286.004 0 325.253 52.5629 334.727 129.629C336.306 141.485 336.983 153.341 336.983 164.802C336.983 240.683 306.982 309.054 262.995 325.653C255.1 328.814 247.431 330 239.761 330C197.805 330 160.811 285.341 150.885 199.976Z" fill="#C31723"/>
<path d="M173.894 114.216C172.766 124.491 172.089 136.347 172.089 148.994C172.089 163.222 172.992 177.844 174.571 191.677C177.503 215.784 184.947 242.659 190.361 257.677C201.639 288.503 223.971 310.635 247.431 310.635C251.942 310.635 256.454 309.844 260.965 308.263C288.711 297.593 309.012 256.096 312.847 211.832C313.749 203.138 314.2 190.886 314.2 178.24C314.2 165.593 313.524 151.76 312.17 139.904C309.012 113.82 302.922 87.3413 294.575 68.3712C281.943 39.9162 261.191 19.7605 239.085 19.7605C234.573 19.7605 230.062 20.5509 225.55 22.1317C198.707 32.4072 178.631 72.7186 173.894 114.216ZM150.885 199.976C149.532 189.305 149.081 178.24 149.081 167.964C149.081 86.9461 184.947 18.1796 222.618 3.95209C229.385 1.18564 235.926 0 242.694 0C286.004 0 325.253 52.5629 334.727 129.629C336.306 141.485 336.983 153.341 336.983 164.802C336.983 240.683 306.982 309.054 262.995 325.653C255.1 328.814 247.431 330 239.761 330C197.805 330 160.811 285.341 150.885 199.976Z" fill="url(#paint1_linear_831_733)"/>
<path d="M365.929 300.359C367.057 276.647 368.41 233.174 368.41 167.174C368.41 105.126 367.057 58.0958 365.929 33.1976C365.252 16.5988 355.327 11.8563 355.327 11.8563H402.697C400.667 13.0419 392.998 19.7605 392.095 33.1976C390.291 60.4671 389.614 102.359 389.614 160.455C390.967 160.455 413.299 161.641 430.443 161.641C447.361 161.641 470.82 160.455 471.497 160.455C471.497 101.569 469.692 57.3054 468.79 33.1976C468.113 16.5988 458.414 11.8563 458.414 11.8563L505.784 11.4611C504.431 13.4371 495.859 24.1078 495.182 33.1976C493.603 54.1437 492.475 90.1078 492.475 137.138C492.475 146.623 492.701 156.898 492.701 167.174C493.378 232.778 493.152 271.509 495.408 300.755C496.31 313.796 505.784 322.886 505.784 322.886H458.414C458.414 322.886 468.339 316.958 469.016 300.359C469.918 277.437 471.497 236.335 471.497 173.892C471.271 173.892 446.007 172.707 430.217 172.707C413.75 172.707 390.967 173.892 389.614 173.892C389.614 235.545 392.321 299.964 392.321 299.964C392.998 313.006 402.923 322.886 402.923 322.886H355.101C355.101 322.886 365.252 316.958 365.929 300.359Z" fill="#C31723"/>
<path d="M365.929 300.359C367.057 276.647 368.41 233.174 368.41 167.174C368.41 105.126 367.057 58.0958 365.929 33.1976C365.252 16.5988 355.327 11.8563 355.327 11.8563H402.697C400.667 13.0419 392.998 19.7605 392.095 33.1976C390.291 60.4671 389.614 102.359 389.614 160.455C390.967 160.455 413.299 161.641 430.443 161.641C447.361 161.641 470.82 160.455 471.497 160.455C471.497 101.569 469.692 57.3054 468.79 33.1976C468.113 16.5988 458.414 11.8563 458.414 11.8563L505.784 11.4611C504.431 13.4371 495.859 24.1078 495.182 33.1976C493.603 54.1437 492.475 90.1078 492.475 137.138C492.475 146.623 492.701 156.898 492.701 167.174C493.378 232.778 493.152 271.509 495.408 300.755C496.31 313.796 505.784 322.886 505.784 322.886H458.414C458.414 322.886 468.339 316.958 469.016 300.359C469.918 277.437 471.497 236.335 471.497 173.892C471.271 173.892 446.007 172.707 430.217 172.707C413.75 172.707 390.967 173.892 389.614 173.892C389.614 235.545 392.321 299.964 392.321 299.964C392.998 313.006 402.923 322.886 402.923 322.886H355.101C355.101 322.886 365.252 316.958 365.929 300.359Z" fill="url(#paint2_linear_831_733)"/>
<path d="M640.409 10.6707C663.869 10.6707 680.335 7.50898 680.335 7.50898C680.335 7.50898 677.403 26.8743 676.275 42.6826C674.696 62.4431 674.696 97.6168 674.696 97.6168C674.696 97.6168 665.448 24.1078 638.83 24.1078H615.145C614.242 43.8683 612.438 88.5269 612.438 148.994V167.174C612.663 231.593 613.566 287.713 614.694 300.755C615.821 313.796 625.521 322.491 625.521 322.491H577.925C577.925 322.491 587.625 317.353 588.753 300.755C590.106 278.623 591.008 241.078 591.008 186.539V167.174C590.557 96.4311 588.978 45.8443 588.076 24.1078H563.489C537.999 26.8743 529.427 97.6168 529.427 97.6168C529.427 97.6168 529.427 62.4431 527.848 42.6826C526.72 26.8743 523.788 7.50898 523.788 7.50898C523.788 7.50898 540.254 10.6707 563.714 10.6707H640.409Z" fill="#C31723"/>
<path d="M640.409 10.6707C663.869 10.6707 680.335 7.50898 680.335 7.50898C680.335 7.50898 677.403 26.8743 676.275 42.6826C674.696 62.4431 674.696 97.6168 674.696 97.6168C674.696 97.6168 665.448 24.1078 638.83 24.1078H615.145C614.242 43.8683 612.438 88.5269 612.438 148.994V167.174C612.663 231.593 613.566 287.713 614.694 300.755C615.821 313.796 625.521 322.491 625.521 322.491H577.925C577.925 322.491 587.625 317.353 588.753 300.755C590.106 278.623 591.008 241.078 591.008 186.539V167.174C590.557 96.4311 588.978 45.8443 588.076 24.1078H563.489C537.999 26.8743 529.427 97.6168 529.427 97.6168C529.427 97.6168 529.427 62.4431 527.848 42.6826C526.72 26.8743 523.788 7.50898 523.788 7.50898C523.788 7.50898 540.254 10.6707 563.714 10.6707H640.409Z" fill="url(#paint3_linear_831_733)"/>
<path d="M724.052 160.455H763.753C755.407 97.2216 748.414 54.5389 744.58 32.012L724.052 160.455ZM676.005 322.491C676.005 322.491 687.735 312.611 690.893 297.988C706.909 222.503 721.797 130.024 735.557 25.2934C735.557 25.2934 735.557 24.8982 735.557 24.503C735.557 18.5748 727.436 11.8563 727.436 11.8563H779.769C779.769 11.8563 770.746 16.2036 770.746 30.0359C770.746 30.8263 770.972 31.6168 770.972 32.8024C773.002 56.1198 777.062 99.988 785.859 167.174C793.755 228.826 801.424 275.461 805.71 300.755C808.417 316.563 815.861 322.491 815.861 322.491H768.265C768.265 322.491 779.318 313.401 779.318 300.755C779.318 275.461 772.776 230.802 765.558 173.497H721.797L701.721 299.569C701.495 300.755 701.495 302.335 701.495 303.521C701.495 316.563 712.548 322.491 712.548 322.491H676.005Z" fill="#C31723"/>
<path d="M724.052 160.455H763.753C755.407 97.2216 748.414 54.5389 744.58 32.012L724.052 160.455ZM676.005 322.491C676.005 322.491 687.735 312.611 690.893 297.988C706.909 222.503 721.797 130.024 735.557 25.2934C735.557 25.2934 735.557 24.8982 735.557 24.503C735.557 18.5748 727.436 11.8563 727.436 11.8563H779.769C779.769 11.8563 770.746 16.2036 770.746 30.0359C770.746 30.8263 770.972 31.6168 770.972 32.8024C773.002 56.1198 777.062 99.988 785.859 167.174C793.755 228.826 801.424 275.461 805.71 300.755C808.417 316.563 815.861 322.491 815.861 322.491H768.265C768.265 322.491 779.318 313.401 779.318 300.755C779.318 275.461 772.776 230.802 765.558 173.497H721.797L701.721 299.569C701.495 300.755 701.495 302.335 701.495 303.521C701.495 316.563 712.548 322.491 712.548 322.491H676.005Z" fill="url(#paint4_linear_831_733)"/>
<path d="M872.524 35.5689C871.17 55.3293 870.945 93.6647 870.945 135.952L930.496 31.6168C932.075 28.0599 932.752 24.8982 932.752 22.5269C932.752 15.4132 928.24 11.8563 928.24 11.8563H965.911C965.911 11.8563 955.083 17.7844 942.226 38.7305L877.261 152.946C877.261 152.946 937.037 258.467 957.113 293.246C969.52 314.587 983.054 322.491 983.054 322.491H930.27C930.27 322.491 938.842 317.353 938.842 308.659C938.842 306.287 938.165 303.521 936.586 300.755L870.945 185.749C871.17 237.521 872.298 273.88 873.2 296.012C873.877 309.449 884.479 322.491 884.479 322.491H836.432C836.432 322.491 846.583 314.587 847.485 298.383C848.613 274.275 849.741 231.198 849.741 166.778C849.741 105.916 848.387 60.0719 847.259 34.7784C846.357 18.9701 836.206 11.8563 836.206 11.8563H883.577C883.577 11.8563 873.426 22.1317 872.524 35.5689Z" fill="#C31723"/>
<path d="M872.524 35.5689C871.17 55.3293 870.945 93.6647 870.945 135.952L930.496 31.6168C932.075 28.0599 932.752 24.8982 932.752 22.5269C932.752 15.4132 928.24 11.8563 928.24 11.8563H965.911C965.911 11.8563 955.083 17.7844 942.226 38.7305L877.261 152.946C877.261 152.946 937.037 258.467 957.113 293.246C969.52 314.587 983.054 322.491 983.054 322.491H930.27C930.27 322.491 938.842 317.353 938.842 308.659C938.842 306.287 938.165 303.521 936.586 300.755L870.945 185.749C871.17 237.521 872.298 273.88 873.2 296.012C873.877 309.449 884.479 322.491 884.479 322.491H836.432C836.432 322.491 846.583 314.587 847.485 298.383C848.613 274.275 849.741 231.198 849.741 166.778C849.741 105.916 848.387 60.0719 847.259 34.7784C846.357 18.9701 836.206 11.8563 836.206 11.8563H883.577C883.577 11.8563 873.426 22.1317 872.524 35.5689Z" fill="url(#paint5_linear_831_733)"/>
<path d="M1117.77 10.6707C1141.23 10.6707 1157.7 7.50898 1157.7 7.50898C1157.7 7.50898 1154.76 26.8743 1153.64 42.6826C1152.06 62.4431 1152.06 97.6168 1152.06 97.6168C1152.06 97.6168 1142.81 24.1078 1116.19 24.1078H1092.5C1091.6 43.8683 1089.8 88.5269 1089.8 148.994V167.174C1090.02 231.593 1090.93 287.713 1092.05 300.755C1093.18 313.796 1102.88 322.491 1102.88 322.491H1055.29C1055.29 322.491 1064.98 317.353 1066.11 300.755C1067.47 278.623 1068.37 241.078 1068.37 186.539V167.174C1067.92 96.4311 1066.34 45.8443 1065.44 24.1078H1040.85C1015.36 26.8743 1006.79 97.6168 1006.79 97.6168C1006.79 97.6168 1006.79 62.4431 1005.21 42.6826C1004.08 26.8743 1001.15 7.50898 1001.15 7.50898C1001.15 7.50898 1017.61 10.6707 1041.07 10.6707H1117.77Z" fill="#C31723"/>
<path d="M1117.77 10.6707C1141.23 10.6707 1157.7 7.50898 1157.7 7.50898C1157.7 7.50898 1154.76 26.8743 1153.64 42.6826C1152.06 62.4431 1152.06 97.6168 1152.06 97.6168C1152.06 97.6168 1142.81 24.1078 1116.19 24.1078H1092.5C1091.6 43.8683 1089.8 88.5269 1089.8 148.994V167.174C1090.02 231.593 1090.93 287.713 1092.05 300.755C1093.18 313.796 1102.88 322.491 1102.88 322.491H1055.29C1055.29 322.491 1064.98 317.353 1066.11 300.755C1067.47 278.623 1068.37 241.078 1068.37 186.539V167.174C1067.92 96.4311 1066.34 45.8443 1065.44 24.1078H1040.85C1015.36 26.8743 1006.79 97.6168 1006.79 97.6168C1006.79 97.6168 1006.79 62.4431 1005.21 42.6826C1004.08 26.8743 1001.15 7.50898 1001.15 7.50898C1001.15 7.50898 1017.61 10.6707 1041.07 10.6707H1117.77Z" fill="url(#paint6_linear_831_733)"/>
<path d="M1183.73 308.263C1184.86 287.317 1186.66 241.868 1186.66 167.174C1186.66 97.2215 1185.53 47.0299 1183.73 24.8982C1183.05 17.7844 1176.06 11.8563 1176.06 11.8563H1218.47C1218.47 11.8563 1211.25 16.994 1210.8 24.503C1209.9 45.8443 1208.09 93.2695 1207.87 157.689L1255.24 158.084C1281.18 158.084 1302.16 194.838 1302.16 240.287C1302.16 285.737 1281.18 322.491 1255.24 322.491L1193.88 322.886H1175.83C1175.83 322.886 1183.5 314.982 1183.73 308.263ZM1247.57 171.521C1245.76 171.521 1243.73 171.126 1241.48 171.126C1231.55 171.126 1218.47 172.707 1207.87 173.892C1207.87 241.868 1209.45 284.946 1210.35 306.287C1222.3 307.868 1236.74 309.449 1246.66 309.449C1266.74 309.449 1283.43 275.461 1283.43 240.287C1283.43 205.114 1267.64 173.102 1247.57 171.521ZM1347.72 298.383C1348.4 314.587 1358.55 322.096 1358.55 322.096H1310.95C1310.95 322.096 1321.33 309.449 1322.01 296.012C1323.13 270.323 1324.26 194.838 1324.26 129.629C1324.26 89.3174 1323.81 52.9581 1322.68 35.1736C1321.78 21.7365 1311.63 11.8563 1311.63 11.8563H1359C1359 11.8563 1348.85 18.1796 1347.95 33.5928C1346.59 58.8862 1345.47 104.731 1345.47 166.383C1345.47 230.802 1346.59 274.275 1347.72 298.383Z" fill="#C31723"/>
<path d="M1183.73 308.263C1184.86 287.317 1186.66 241.868 1186.66 167.174C1186.66 97.2215 1185.53 47.0299 1183.73 24.8982C1183.05 17.7844 1176.06 11.8563 1176.06 11.8563H1218.47C1218.47 11.8563 1211.25 16.994 1210.8 24.503C1209.9 45.8443 1208.09 93.2695 1207.87 157.689L1255.24 158.084C1281.18 158.084 1302.16 194.838 1302.16 240.287C1302.16 285.737 1281.18 322.491 1255.24 322.491L1193.88 322.886H1175.83C1175.83 322.886 1183.5 314.982 1183.73 308.263ZM1247.57 171.521C1245.76 171.521 1243.73 171.126 1241.48 171.126C1231.55 171.126 1218.47 172.707 1207.87 173.892C1207.87 241.868 1209.45 284.946 1210.35 306.287C1222.3 307.868 1236.74 309.449 1246.66 309.449C1266.74 309.449 1283.43 275.461 1283.43 240.287C1283.43 205.114 1267.64 173.102 1247.57 171.521ZM1347.72 298.383C1348.4 314.587 1358.55 322.096 1358.55 322.096H1310.95C1310.95 322.096 1321.33 309.449 1322.01 296.012C1323.13 270.323 1324.26 194.838 1324.26 129.629C1324.26 89.3174 1323.81 52.9581 1322.68 35.1736C1321.78 21.7365 1311.63 11.8563 1311.63 11.8563H1359C1359 11.8563 1348.85 18.1796 1347.95 33.5928C1346.59 58.8862 1345.47 104.731 1345.47 166.383C1345.47 230.802 1346.59 274.275 1347.72 298.383Z" fill="url(#paint7_linear_831_733)"/>
</g>
<defs>
<linearGradient id="paint0_linear_831_733" x1="437.049" y1="-266.515" x2="462.883" y2="358.156" gradientUnits="userSpaceOnUse">
<stop stop-color="#242020"/>
<stop offset="1" stop-color="white"/>
</linearGradient>
<linearGradient id="paint1_linear_831_733" x1="437.049" y1="-266.515" x2="462.883" y2="358.156" gradientUnits="userSpaceOnUse">
<stop stop-color="#242020"/>
<stop offset="1" stop-color="white"/>
</linearGradient>
<linearGradient id="paint2_linear_831_733" x1="437.049" y1="-266.515" x2="462.883" y2="358.156" gradientUnits="userSpaceOnUse">
<stop stop-color="#242020"/>
<stop offset="1" stop-color="white"/>
</linearGradient>
<linearGradient id="paint3_linear_831_733" x1="437.049" y1="-266.515" x2="462.883" y2="358.156" gradientUnits="userSpaceOnUse">
<stop stop-color="#242020"/>
<stop offset="1" stop-color="white"/>
</linearGradient>
<linearGradient id="paint4_linear_831_733" x1="437.049" y1="-266.515" x2="462.883" y2="358.156" gradientUnits="userSpaceOnUse">
<stop stop-color="#242020"/>
<stop offset="1" stop-color="white"/>
</linearGradient>
<linearGradient id="paint5_linear_831_733" x1="437.049" y1="-266.515" x2="462.883" y2="358.156" gradientUnits="userSpaceOnUse">
<stop stop-color="#242020"/>
<stop offset="1" stop-color="white"/>
</linearGradient>
<linearGradient id="paint6_linear_831_733" x1="437.049" y1="-266.515" x2="462.883" y2="358.156" gradientUnits="userSpaceOnUse">
<stop stop-color="#242020"/>
<stop offset="1" stop-color="white"/>
</linearGradient>
<linearGradient id="paint7_linear_831_733" x1="437.049" y1="-266.515" x2="462.883" y2="358.156" gradientUnits="userSpaceOnUse">
<stop stop-color="#242020"/>
<stop offset="1" stop-color="white"/>
</linearGradient>
</defs>
</svg>
