<svg width="428" height="112" viewBox="0 0 428 112" fill="none" xmlns="http://www.w3.org/2000/svg">
<path d="M41.2053 10.4358H50.5812C56.291 9.59538 62.1222 10.3343 67.4413 12.5723C74.1144 16.5835 78.9546 23.0413 80.9293 30.5679C82.3275 34.5121 82.3275 34.5121 85.6995 33.1152H88.3313V1.88995H0.0830794V7.39545H3.70183C5.27439 7.38457 6.8294 7.72583 8.25264 8.39416C9.67587 9.06248 10.9312 10.0409 11.9263 11.2575C15.2983 16.6809 15.874 22.7616 15.874 54.3977C15.874 88.0059 15.1338 96.223 11.9263 100.414C11.1344 101.491 10.1092 102.376 8.9272 103.002C7.74518 103.628 6.43689 103.979 5.09999 104.029C0.0830796 104.933 0.0830794 104.851 0.0830794 107.07C-0.19436 107.812 -0.19436 108.629 0.0830794 109.37H55.7626C56.131 108.645 56.3231 107.842 56.3231 107.029C56.3231 106.215 56.131 105.412 55.7626 104.687C54.414 104.312 53.0395 104.037 51.6503 103.865C50.1475 103.686 48.6621 103.384 47.2091 102.961C45.1285 101.443 43.4802 99.4096 42.4273 97.0606C41.3743 94.7115 40.9531 92.1286 41.2053 89.5671C40.3828 84.1438 39.9716 74.201 39.9716 65.9839V59.4923H43.2614C47.3601 59.367 51.4564 59.8095 55.4336 60.807C57.3389 61.9834 58.9608 63.5656 60.1835 65.4405C61.4061 67.3155 62.1994 69.437 62.5066 71.6537L63.2468 74.201H68.2637V37.799H63.658L62.9178 41.3324C62.6064 43.5992 61.767 45.7614 60.4672 47.6452C59.1674 49.5291 57.4433 51.0819 55.4336 52.179C53.4873 52.7577 51.4368 52.898 49.4297 52.5899H39.9716V43.7153C39.9716 34.5121 40.4651 15.1196 40.7941 12.0792L41.2053 10.4358ZM426.109 75.5979C422.222 69.3464 416.158 64.7516 409.085 62.697C403.662 61.0034 398.649 58.2056 394.363 54.4798C393.398 53.5477 392.677 52.394 392.261 51.1192C391.845 49.8445 391.748 48.4875 391.978 47.1665C391.984 44.5756 393.019 42.093 394.856 40.2641C396.101 38.9614 397.677 38.021 399.415 37.5434C401.154 37.0658 402.989 37.0689 404.726 37.5525C408.321 38.5762 411.572 40.5526 414.135 43.2722C416.698 45.9918 418.477 49.3534 419.283 53.0007C420.599 56.6985 420.763 56.6985 423.148 55.7124L424.629 55.1372V34.6764L423.56 34.1834C415.463 31.3422 406.874 30.1682 398.311 30.7322C390.936 30.9189 383.897 33.8492 378.572 38.9494C376.157 41.2082 374.265 43.9671 373.029 47.0331C371.793 50.099 371.243 53.3978 371.417 56.6985C371.463 61.7448 373.468 66.5762 377.009 70.1746C380.923 74.0202 385.725 76.8426 390.991 78.3918C403.739 83.4043 407.44 86.6089 407.44 92.4431C407.494 94.9035 406.71 97.3092 405.215 99.2653C403.721 101.221 401.605 102.612 399.215 103.208C396.344 103.838 393.369 103.838 390.497 103.208C386.737 101.75 383.38 99.4157 380.705 96.4C378.03 93.3843 376.115 89.774 375.118 85.8694L374.048 83.2399H372.568C371.861 83.2924 371.166 83.4589 370.512 83.7329H369.69V107.07H371.088C376.644 108.916 382.377 110.183 388.194 110.85H396.419C399.986 111.111 403.571 110.778 407.028 109.864C411.418 109.054 415.519 107.112 418.924 104.229C422.329 101.345 424.919 97.6224 426.438 93.4292C427.42 91.0871 427.923 88.5728 427.919 86.0337C428.243 82.4568 427.619 78.8576 426.109 75.5979ZM348.635 33.1152C343.707 31.0478 338.396 30.045 333.053 30.1724C327.709 30.2999 322.453 31.5548 317.629 33.8547C313.094 36.0708 309.075 39.2122 305.831 43.0761C302.587 46.9401 300.19 51.4407 298.795 56.2876C297.016 61.5749 296.262 67.1526 296.574 72.7219C296.515 75.7521 296.763 78.7805 297.314 81.7608C298.643 89.0889 302.184 95.8354 307.462 101.094C312.74 106.353 319.502 109.872 326.84 111.178C331.619 111.78 336.454 111.78 341.233 111.178C346.192 110.305 350.938 108.492 355.215 105.837C358.752 103.856 361.747 101.033 363.932 97.62C363.792 97.0844 363.545 96.5827 363.206 96.1449C362.867 95.7072 362.442 95.3425 361.959 95.0726C361.02 95.4122 360.134 95.8825 359.327 96.4696C355.236 99.1632 350.406 100.513 345.51 100.332C342.26 100.551 339.002 100.046 335.973 98.8518C332.943 97.658 330.216 95.8057 327.992 93.4292C326.271 91.832 324.85 89.9395 323.797 87.8415C321.241 82.7331 319.864 77.1174 319.767 71.4072V68.2025H365.331V66.5591C365.431 64.9172 365.431 63.2707 365.331 61.6288C365.314 55.8266 363.761 50.1322 360.829 45.1241C357.896 40.116 353.689 35.9727 348.635 33.1152ZM325.689 61.5466H319.932V56.6985C321.823 44.2905 326.511 36.8951 332.268 36.8951C338.025 36.8951 340.493 44.2084 341.562 57.6023V61.3822H336.627L325.689 61.5466ZM207.421 30.4035C204.579 30.2934 201.754 30.8862 199.197 32.1291C193.638 34.8262 189.148 39.312 186.449 44.8657L185.38 46.8379V30.4035H184.969C183.982 30.4035 153.551 36.4842 152.564 36.8951C151.577 37.3059 151.906 37.3881 151.906 38.8672C151.906 40.3463 151.906 40.5928 152.564 40.675L155.772 41.3324C156.67 41.3544 157.552 41.5804 158.35 41.9932C159.148 42.4061 159.841 42.995 160.377 43.7153C162.434 46.427 162.845 51.193 162.845 71.4894C163.251 80.6265 162.866 89.7817 161.693 98.8525C161.417 100.22 160.723 101.469 159.707 102.425C158.69 103.382 157.401 104 156.019 104.194L153.222 104.769H152.153V107.07C151.855 107.836 151.855 108.686 152.153 109.453H198.128V107.07C198.287 106.283 198.287 105.473 198.128 104.687C195.36 104.579 192.607 104.221 189.903 103.618C188.431 102.849 187.226 101.652 186.448 100.185C185.67 98.7185 185.355 97.0506 185.544 95.4013C184.886 90.6354 184.557 76.6662 184.722 65.9839C184.886 55.3015 184.722 54.6442 185.627 53.9046C188.379 51.7964 191.784 50.7204 195.249 50.8643C198.515 50.9354 201.722 51.7505 204.625 53.2472C205.631 53.8056 206.711 54.2205 207.833 54.4798C207.833 54.4798 216.057 34.5943 216.057 33.6904C215.004 32.4685 213.664 31.528 212.156 30.9541C210.648 30.3802 209.021 30.191 207.421 30.4035ZM151.989 64.9156C151.701 59.0437 150.014 53.3253 147.067 48.2368C144.12 43.1484 139.999 38.8372 135.046 35.6625C129.161 32.4903 122.613 30.7411 115.928 30.5556C109.243 30.3701 102.608 31.7533 96.5558 34.5943C87.9982 39.1029 81.5369 46.767 78.5443 55.9589C75.4532 66.2502 75.4532 77.2216 78.5443 87.5128C80.1647 93.1373 83.1934 98.2561 87.3444 102.386C92.5142 107.426 99.1804 110.655 106.343 111.589C110.941 111.973 115.562 111.973 120.16 111.589C121.852 111.332 123.527 110.975 125.177 110.521C131.871 108.65 137.894 104.913 142.54 99.7468C147.186 94.5808 150.264 88.1997 151.413 81.35C152.234 75.9119 152.427 70.3977 151.989 64.9156ZM117.775 106.001C109.55 108.467 103.382 100.496 101.326 83.7329C100.571 74.9567 100.571 66.132 101.326 57.3558C102.971 43.8797 107.165 37.0594 113.663 37.0594C114.973 36.9783 116.285 37.2119 117.487 37.7409C118.689 38.2698 119.746 39.0787 120.571 40.0998C126.082 45.6053 128.796 56.5341 128.796 72.9685C129.48 82.2693 128.017 91.603 124.519 100.249C122.974 102.771 120.585 104.664 117.775 105.591V106.001ZM265.815 32.047C263.494 31.7486 261.145 31.7486 258.824 32.047C254.369 32.0432 249.966 32.996 245.912 34.8408L243.362 35.909V18.0778C243.808 12.0601 243.808 6.0177 243.362 0C242.375 0 210.958 5.99853 210.464 6.24505C210.222 6.85172 210.222 7.52832 210.464 8.135C210.464 9.8606 210.464 9.77843 214.165 10.6001C215.204 10.833 216.203 11.2208 217.126 11.7505C218.732 13.2589 219.8 15.2497 220.169 17.4204C221.106 23.6738 221.409 30.0057 221.074 36.3199V108.467L223.294 108.96C226.584 109.699 235.878 111.26 238.921 111.589C244.997 112.072 251.103 112.072 257.179 111.589C263.924 110.901 270.353 108.387 275.773 104.318C281.193 100.249 285.399 94.7796 287.939 88.4989C289.452 84.4678 290.501 80.2774 291.064 76.0088C291.553 70.2268 291.36 64.4074 290.488 58.6706C289.606 52.24 286.765 46.2361 282.351 41.4735C277.938 36.7108 272.164 33.4198 265.815 32.047ZM244.267 104.605C244.267 103.536 243.444 67.5451 243.609 53.1651V41.9076L245.994 41.3324C247.603 41.102 249.237 41.102 250.846 41.3324C252.626 41.1516 254.416 41.5554 255.945 42.4828C259.017 44.6006 261.567 47.387 263.405 50.6322C265.243 53.8774 266.32 57.4967 266.555 61.2179C267.154 67.2015 267.154 73.2299 266.555 79.2135C266.063 87.9102 262.709 96.2008 257.015 102.797C255.398 104.331 253.369 105.359 251.175 105.755C249.515 106.043 247.818 106.043 246.158 105.755C244.596 105.755 244.596 105.262 244.596 104.605H244.267Z" fill="white"/>
</svg>
