<svg width="50" height="50" viewBox="0 0 50 50" fill="none" xmlns="http://www.w3.org/2000/svg">
<path d="M20.878 0.22765C15.5511 1.13675 11.1313 3.45081 7.25571 7.31861C3.5945 11.0046 1.3681 15.1864 0.312613 20.3931C-0.132668 22.6411 -0.0996843 27.7155 0.395073 30.013C1.10422 33.3354 2.29164 36.1288 4.12224 38.9056C7.8824 44.5421 13.2917 48.1619 20.2183 49.6661C22.3623 50.1454 27.7551 50.0958 30.064 49.6C43.6863 46.6412 52.2621 33.5006 49.475 19.8146C48.403 14.5253 45.2366 9.21946 41.0806 5.79794C37.3864 2.74007 33.049 0.789635 28.5632 0.161533C26.8646 -0.0864029 22.4283 -0.0368156 20.878 0.22765ZM29.4703 17.4179C35.5888 21.0377 40.8002 24.1452 41.0476 24.327C41.3939 24.5584 41.4929 24.7568 41.4599 25.0708C41.4104 25.451 40.0581 26.3105 29.7836 32.4097C23.3848 36.1949 18.0414 39.3189 17.9095 39.3189C17.2498 39.3189 17.2498 39.418 17.2498 25.0212C17.2498 10.2938 17.2333 10.6244 18.0084 10.7732C18.1898 10.8062 23.3518 13.798 29.4703 17.4179Z" fill="white"/>
</svg>
